<?xml version="1.0" encoding="utf-8"?>
<!-- Generator: Adobe Illustrator 16.0.0, SVG Export Plug-In . SVG Version: 6.00 Build 0)  -->
<!DOCTYPE svg PUBLIC "-//W3C//DTD SVG 1.1//EN" "http://www.w3.org/Graphics/SVG/1.1/DTD/svg11.dtd">
<svg version="1.1" xmlns="http://www.w3.org/2000/svg" xmlns:xlink="http://www.w3.org/1999/xlink" x="0px" y="0px"
	 width="841.89px" height="595.28px" viewBox="0 0 841.89 595.28" enable-background="new 0 0 841.89 595.28" xml:space="preserve">
<g id="Calque_1">
	<g>
		<g>
			<defs>
				<polygon id="SVGID_1_" points="65.942,182.4 224.398,182.4 224.398,353.111 65.942,353.111 65.942,182.4 				"/>
			</defs>
			<clipPath id="SVGID_2_">
				<use xlink:href="#SVGID_1_"  overflow="visible"/>
			</clipPath>
			<polyline clip-path="url(#SVGID_2_)" fill-rule="evenodd" clip-rule="evenodd" fill="#818181" points="65.434,181.893 
				65.434,194.557 224.398,194.557 224.398,181.893 65.434,181.893 			"/>
			<polyline clip-path="url(#SVGID_2_)" fill-rule="evenodd" clip-rule="evenodd" fill="#D0CECE" points="65.434,194.051 
				65.434,206.715 224.398,206.715 224.398,194.051 65.434,194.051 			"/>
		</g>
		<g>
			<defs>
				<polygon id="SVGID_3_" points="65.942,206.715 224.398,206.715 224.398,218.872 65.942,218.872 65.942,206.715 				"/>
			</defs>
			<clipPath id="SVGID_4_">
				<use xlink:href="#SVGID_3_"  overflow="visible"/>
			</clipPath>
			<g clip-path="url(#SVGID_4_)">
				<text transform="matrix(1.0026 0 0 1 89.3086 215.8193)" fill="#010101" font-family="'Calibri-Bold'" font-size="9.1181">D</text>
			</g>
			<g clip-path="url(#SVGID_4_)">
				<text transform="matrix(1.0026 0 0 1 142.6289 215.8193)" fill="#010101" font-family="'Calibri'" font-size="9.1181">4</text>
			</g>
			<g clip-path="url(#SVGID_4_)">
				<text transform="matrix(1.0026 0 0 1 193.418 215.8193)" fill="#010101" font-family="'Calibri-Italic'" font-size="9.1181">m</text>
			</g>
		</g>
		<g>
			<defs>
				<polygon id="SVGID_5_" points="65.942,219.379 224.398,219.379 224.398,231.03 65.942,231.03 65.942,219.379 				"/>
			</defs>
			<clipPath id="SVGID_6_">
				<use xlink:href="#SVGID_5_"  overflow="visible"/>
			</clipPath>
			<g clip-path="url(#SVGID_6_)">
				<text transform="matrix(1.0026 0 0 1 84.2305 228.4912)"><tspan x="0" y="0" fill="#010101" font-family="'Calibri-Bold'" font-size="9.1181">L</tspan><tspan x="4.047" y="0" fill="#010101" font-family="'Calibri-Bold'" font-size="9.1181">o</tspan><tspan x="9.104" y="0" fill="#010101" font-family="'Calibri-Bold'" font-size="9.1181">s</tspan><tspan x="12.65" y="0" fill="#010101" font-family="'Calibri-Bold'" font-size="9.1181">t</tspan></text>
			</g>
			<g clip-path="url(#SVGID_6_)">
				<text transform="matrix(1.0026 0 0 1 123.332 228.4912)"><tspan x="0" y="0" fill="#010101" font-family="'Calibri'" font-size="9.1181">595</tspan><tspan x="13.7" y="0" fill="#010101" font-family="'Calibri'" font-size="9.1181">,</tspan><tspan x="15.729" y="0" fill="#010101" font-family="'Calibri'" font-size="9.1181">93639</tspan><tspan x="38.562" y="0" fill="#010101" font-family="'Calibri'" font-size="9.1181">4</tspan></text>
			</g>
			<g clip-path="url(#SVGID_6_)">
				<text transform="matrix(1.0026 0 0 1 183.7695 228.4912)"><tspan x="0" y="0" fill="#010101" font-family="'Calibri-Italic'" font-size="9.1181">E</tspan><tspan x="4.553" y="0" fill="#010101" font-family="'Calibri-Italic'" font-size="9.1181">U</tspan><tspan x="10.631" y="0" fill="#010101" font-family="'Calibri-Italic'" font-size="9.1181">R</tspan><tspan x="15.691" y="0" fill="#010101" font-family="'Calibri-Italic'" font-size="9.1181">/</tspan><tspan x="19.235" y="0" fill="#010101" font-family="'Calibri-Italic'" font-size="9.1181">m</tspan></text>
			</g>
		</g>
		<g>
			<defs>
				<polygon id="SVGID_7_" points="65.942,231.536 224.398,231.536 224.398,243.187 65.942,243.187 65.942,231.536 				"/>
			</defs>
			<clipPath id="SVGID_8_">
				<use xlink:href="#SVGID_7_"  overflow="visible"/>
			</clipPath>
			<g clip-path="url(#SVGID_8_)">
				<text transform="matrix(1.0026 0 0 1 70.0039 240.6475)"><tspan x="0" y="0" fill="#010101" font-family="'Calibri-Bold'" font-size="9.1181">I</tspan><tspan x="2.531" y="0" fill="#010101" font-family="'Calibri-Bold'" font-size="9.1181">n</tspan><tspan x="7.588" y="0" fill="#010101" font-family="'Calibri-Bold'" font-size="9.1181">v</tspan><tspan x="12.139" y="0" fill="#010101" font-family="'Calibri-Bold'" font-size="9.1181">e</tspan><tspan x="16.702" y="0" fill="#010101" font-family="'Calibri-Bold'" font-size="9.1181">s</tspan><tspan x="20.249" y="0" fill="#010101" font-family="'Calibri-Bold'" font-size="9.1181">t</tspan><tspan x="23.291" y="0" fill="#010101" font-family="'Calibri-Bold'" font-size="9.1181">m</tspan><tspan x="30.882" y="0" fill="#010101" font-family="'Calibri-Bold'" font-size="9.1181">e</tspan><tspan x="35.445" y="0" fill="#010101" font-family="'Calibri-Bold'" font-size="9.1181">n</tspan><tspan x="40.502" y="0" fill="#010101" font-family="'Calibri-Bold'" font-size="9.1181">t</tspan><tspan x="43.544" y="0" fill="#010101" font-family="'Calibri-Bold'" font-size="9.1181"> </tspan></text>
			</g>
			<g clip-path="url(#SVGID_8_)">
				<text transform="matrix(1.0026 0 0 1 127.9023 240.6475)"><tspan x="0" y="0" fill="#010101" font-family="'Calibri'" font-size="9.1181">5125</tspan><tspan x="18.267" y="0" fill="#010101" font-family="'Calibri'" font-size="9.1181">,</tspan><tspan x="20.296" y="0" fill="#010101" font-family="'Calibri'" font-size="9.1181">79</tspan><tspan x="29.429" y="0" fill="#010101" font-family="'Calibri'" font-size="9.1181">4</tspan></text>
			</g>
			<g clip-path="url(#SVGID_8_)">
				<text transform="matrix(1.0026 0 0 1 183.7695 240.6475)"><tspan x="0" y="0" fill="#010101" font-family="'Calibri-Italic'" font-size="9.1181">E</tspan><tspan x="4.553" y="0" fill="#010101" font-family="'Calibri-Italic'" font-size="9.1181">U</tspan><tspan x="10.631" y="0" fill="#010101" font-family="'Calibri-Italic'" font-size="9.1181">R</tspan><tspan x="15.691" y="0" fill="#010101" font-family="'Calibri-Italic'" font-size="9.1181">/</tspan><tspan x="19.235" y="0" fill="#010101" font-family="'Calibri-Italic'" font-size="9.1181">m</tspan></text>
			</g>
		</g>
		<g>
			<defs>
				<polygon id="SVGID_9_" points="65.942,243.694 118.253,243.694 118.253,267.502 65.942,267.502 65.942,243.694 				"/>
			</defs>
			<clipPath id="SVGID_10_">
				<use xlink:href="#SVGID_9_"  overflow="visible"/>
			</clipPath>
			<g clip-path="url(#SVGID_10_)">
				<text transform="matrix(1.0026 0 0 1 69.4961 252.7959)"><tspan x="0" y="0" fill="#010101" font-family="'Calibri-Bold'" font-size="9.1181">O</tspan><tspan x="6.084" y="0" fill="#010101" font-family="'Calibri-Bold'" font-size="9.1181">p</tspan><tspan x="11.142" y="0" fill="#010101" font-family="'Calibri-Bold'" font-size="9.1181">e</tspan><tspan x="15.704" y="0" fill="#010101" font-family="'Calibri-Bold'" font-size="9.1181">r</tspan><tspan x="18.745" y="0" fill="#010101" font-family="'Calibri-Bold'" font-size="9.1181">a</tspan><tspan x="23.3" y="0" fill="#010101" font-family="'Calibri-Bold'" font-size="9.1181">ti</tspan><tspan x="28.429" y="0" fill="#010101" font-family="'Calibri-Bold'" font-size="9.1181">o</tspan><tspan x="33.486" y="0" fill="#010101" font-family="'Calibri-Bold'" font-size="9.1181">n</tspan><tspan x="38.543" y="0" fill="#010101" font-family="'Calibri-Bold'" font-size="9.1181">a</tspan><tspan x="43.099" y="0" fill="#010101" font-family="'Calibri-Bold'" font-size="9.1181">l</tspan><tspan x="45.129" y="0" fill="#010101" font-family="'Calibri-Bold'" font-size="9.1181"> </tspan></text>
			</g>
			<g clip-path="url(#SVGID_10_)">
				<text transform="matrix(1.0026 0 0 1 81.1836 264.9521)"><tspan x="0" y="0" fill="#010101" font-family="'Calibri-Bold'" font-size="9.1181">c</tspan><tspan x="4.044" y="0" fill="#010101" font-family="'Calibri-Bold'" font-size="9.1181">o</tspan><tspan x="9.1" y="0" fill="#010101" font-family="'Calibri-Bold'" font-size="9.1181">s</tspan><tspan x="12.646" y="0" fill="#010101" font-family="'Calibri-Bold'" font-size="9.1181">t</tspan><tspan x="15.689" y="0" fill="#010101" font-family="'Calibri-Bold'" font-size="9.1181">s</tspan><tspan x="19.235" y="0" fill="#010101" font-family="'Calibri-Bold'" font-size="9.1181">t</tspan><tspan x="22.278" y="0" fill="#010101" font-family="'Calibri-Bold'" font-size="9.1181"> </tspan></text>
			</g>
		</g>
		<g>
			<defs>
				<polygon id="SVGID_11_" points="65.942,243.694 224.398,243.694 224.398,267.502 65.942,267.502 65.942,243.694 				"/>
			</defs>
			<clipPath id="SVGID_12_">
				<use xlink:href="#SVGID_11_"  overflow="visible"/>
			</clipPath>
			<g clip-path="url(#SVGID_12_)">
				<text transform="matrix(1.0026 0 0 1 127.9023 258.8818)"><tspan x="0" y="0" fill="#010101" font-family="'Calibri'" font-size="9.1181">51</tspan><tspan x="9.134" y="0" fill="#010101" font-family="'Calibri'" font-size="9.1181">,</tspan><tspan x="11.162" y="0" fill="#010101" font-family="'Calibri'" font-size="9.1181">2579</tspan><tspan x="29.429" y="0" fill="#010101" font-family="'Calibri'" font-size="9.1181">4</tspan></text>
			</g>
			<g clip-path="url(#SVGID_12_)">
				<text transform="matrix(1.0026 0 0 1 180.7227 258.8818)"><tspan x="0" y="0" fill="#010101" font-family="'Calibri-Italic'" font-size="9.1181">E</tspan><tspan x="4.553" y="0" fill="#010101" font-family="'Calibri-Italic'" font-size="9.1181">u</tspan><tspan x="9.113" y="0" fill="#010101" font-family="'Calibri-Italic'" font-size="9.1181">r</tspan><tspan x="12.156" y="0" fill="#010101" font-family="'Calibri-Italic'" font-size="9.1181">/</tspan><tspan x="15.701" y="0" fill="#010101" font-family="'Calibri-Italic'" font-size="9.1181">y</tspan><tspan x="19.76" y="0" fill="#010101" font-family="'Calibri-Italic'" font-size="9.1181">e</tspan><tspan x="24.315" y="0" fill="#010101" font-family="'Calibri-Italic'" font-size="9.1181">a</tspan><tspan x="28.876" y="0" fill="#010101" font-family="'Calibri-Italic'" font-size="9.1181">r</tspan></text>
			</g>
		</g>
		<g>
			<defs>
				<polygon id="SVGID_13_" points="65.942,268.009 224.398,268.009 224.398,279.659 65.942,279.659 65.942,268.009 				"/>
			</defs>
			<clipPath id="SVGID_14_">
				<use xlink:href="#SVGID_13_"  overflow="visible"/>
			</clipPath>
			<g clip-path="url(#SVGID_14_)">
				<text transform="matrix(1.0026 0 0 1 77.6289 277.1084)"><tspan x="0" y="0" fill="#010101" font-family="'Calibri-Bold'" font-size="9.1181">I</tspan><tspan x="2.531" y="0" fill="#010101" font-family="'Calibri-Bold'" font-size="9.1181">n</tspan><tspan x="7.588" y="0" fill="#010101" font-family="'Calibri-Bold'" font-size="9.1181">c</tspan><tspan x="11.632" y="0" fill="#010101" font-family="'Calibri-Bold'" font-size="9.1181">o</tspan><tspan x="16.689" y="0" fill="#010101" font-family="'Calibri-Bold'" font-size="9.1181">m</tspan><tspan x="24.279" y="0" fill="#010101" font-family="'Calibri-Bold'" font-size="9.1181">e</tspan></text>
			</g>
			<g clip-path="url(#SVGID_14_)">
				<text transform="matrix(1.0026 0 0 1 125.3633 277.1084)"><tspan x="0" y="0" fill="#010101" font-family="'Calibri'" font-size="9.1181">3075</tspan><tspan x="18.267" y="0" fill="#010101" font-family="'Calibri'" font-size="9.1181">,</tspan><tspan x="20.296" y="0" fill="#010101" font-family="'Calibri'" font-size="9.1181">476</tspan><tspan x="33.996" y="0" fill="#010101" font-family="'Calibri'" font-size="9.1181">4</tspan></text>
			</g>
			<g clip-path="url(#SVGID_14_)">
				<text transform="matrix(1.0026 0 0 1 180.7227 277.1084)"><tspan x="0" y="0" fill="#010101" font-family="'Calibri-Italic'" font-size="9.1181">E</tspan><tspan x="4.553" y="0" fill="#010101" font-family="'Calibri-Italic'" font-size="9.1181">u</tspan><tspan x="9.113" y="0" fill="#010101" font-family="'Calibri-Italic'" font-size="9.1181">r</tspan><tspan x="12.156" y="0" fill="#010101" font-family="'Calibri-Italic'" font-size="9.1181">/</tspan><tspan x="15.701" y="0" fill="#010101" font-family="'Calibri-Italic'" font-size="9.1181">y</tspan><tspan x="19.76" y="0" fill="#010101" font-family="'Calibri-Italic'" font-size="9.1181">e</tspan><tspan x="24.315" y="0" fill="#010101" font-family="'Calibri-Italic'" font-size="9.1181">a</tspan><tspan x="28.876" y="0" fill="#010101" font-family="'Calibri-Italic'" font-size="9.1181">r</tspan></text>
			</g>
		</g>
		<g>
			<defs>
				<polygon id="SVGID_15_" points="65.942,280.166 118.253,280.166 118.253,303.975 65.942,303.975 65.942,280.166 				"/>
			</defs>
			<clipPath id="SVGID_16_">
				<use xlink:href="#SVGID_15_"  overflow="visible"/>
			</clipPath>
			<g clip-path="url(#SVGID_16_)">
				<text transform="matrix(1.0026 0 0 1 75.0898 289.2803)"><tspan x="0" y="0" fill="#010101" font-family="'Calibri-Bold'" font-size="9.1181">D</tspan><tspan x="5.574" y="0" fill="#010101" font-family="'Calibri-Bold'" font-size="9.1181">i</tspan><tspan x="7.604" y="0" fill="#010101" font-family="'Calibri-Bold'" font-size="9.1181">s</tspan><tspan x="11.15" y="0" fill="#010101" font-family="'Calibri-Bold'" font-size="9.1181">c</tspan><tspan x="15.194" y="0" fill="#010101" font-family="'Calibri-Bold'" font-size="9.1181">o</tspan><tspan x="20.251" y="0" fill="#010101" font-family="'Calibri-Bold'" font-size="9.1181">un</tspan><tspan x="30.365" y="0" fill="#010101" font-family="'Calibri-Bold'" font-size="9.1181">t</tspan><tspan x="33.408" y="0" fill="#010101" font-family="'Calibri-Bold'" font-size="9.1181"> </tspan></text>
			</g>
			<g clip-path="url(#SVGID_16_)">
				<text transform="matrix(1.0026 0 0 1 84.2305 301.4287)"><tspan x="0" y="0" fill="#010101" font-family="'Calibri-Bold'" font-size="9.1181">r</tspan><tspan x="3.04" y="0" fill="#010101" font-family="'Calibri-Bold'" font-size="9.1181">a</tspan><tspan x="7.597" y="0" fill="#010101" font-family="'Calibri-Bold'" font-size="9.1181">t</tspan><tspan x="10.639" y="0" fill="#010101" font-family="'Calibri-Bold'" font-size="9.1181">e</tspan><tspan x="15.202" y="0" fill="#010101" font-family="'Calibri-Bold'" font-size="9.1181"> </tspan></text>
			</g>
		</g>
		<g>
			<defs>
				<polygon id="SVGID_17_" points="65.942,280.166 224.398,280.166 224.398,303.975 65.942,303.975 65.942,280.166 				"/>
			</defs>
			<clipPath id="SVGID_18_">
				<use xlink:href="#SVGID_17_"  overflow="visible"/>
			</clipPath>
			<g clip-path="url(#SVGID_18_)">
				<text transform="matrix(1.0026 0 0 1 133.4883 295.3506)"><tspan x="0" y="0" fill="#010101" font-family="'Calibri'" font-size="9.1181">5</tspan><tspan x="4.567" y="0" fill="#010101" font-family="'Calibri'" font-size="9.1181">,</tspan><tspan x="6.596" y="0" fill="#010101" font-family="'Calibri'" font-size="9.1181">00</tspan><tspan x="15.729" y="0" fill="#010101" font-family="'Calibri'" font-size="9.1181">%</tspan></text>
			</g>
			<g clip-path="url(#SVGID_18_)">
				<text transform="matrix(1.0026 0 0 1 193.418 295.3506)" fill="#010101" font-family="'Calibri-Italic'" font-size="9.1181">%</text>
			</g>
		</g>
		<g>
			<defs>
				<polygon id="SVGID_19_" points="65.942,304.481 118.253,304.481 118.253,328.289 65.942,328.289 65.942,304.481 				"/>
			</defs>
			<clipPath id="SVGID_20_">
				<use xlink:href="#SVGID_19_"  overflow="visible"/>
			</clipPath>
			<g clip-path="url(#SVGID_20_)">
				<text transform="matrix(1.0026 0 0 1 72.543 313.585)"><tspan x="0" y="0" fill="#010101" font-family="'Calibri-Bold'" font-size="9.1181">R</tspan><tspan x="5.069" y="0" fill="#010101" font-family="'Calibri-Bold'" font-size="9.1181">e</tspan><tspan x="9.632" y="0" fill="#010101" font-family="'Calibri-Bold'" font-size="9.1181">f</tspan><tspan x="12.663" y="0" fill="#010101" font-family="'Calibri-Bold'" font-size="9.1181">e</tspan><tspan x="17.226" y="0" fill="#010101" font-family="'Calibri-Bold'" font-size="9.1181">r</tspan><tspan x="20.267" y="0" fill="#010101" font-family="'Calibri-Bold'" font-size="9.1181">e</tspan><tspan x="24.83" y="0" fill="#010101" font-family="'Calibri-Bold'" font-size="9.1181">n</tspan><tspan x="29.887" y="0" fill="#010101" font-family="'Calibri-Bold'" font-size="9.1181">c</tspan><tspan x="33.93" y="0" fill="#010101" font-family="'Calibri-Bold'" font-size="9.1181">e</tspan><tspan x="38.493" y="0" fill="#010101" font-family="'Calibri-Bold'" font-size="9.1181"> </tspan></text>
			</g>
			<g clip-path="url(#SVGID_20_)">
				<text transform="matrix(1.0026 0 0 1 79.6602 325.7412)"><tspan x="0" y="0" fill="#010101" font-family="'Calibri-Bold'" font-size="9.1181">p</tspan><tspan x="5.057" y="0" fill="#010101" font-family="'Calibri-Bold'" font-size="9.1181">e</tspan><tspan x="9.62" y="0" fill="#010101" font-family="'Calibri-Bold'" font-size="9.1181">r</tspan><tspan x="12.661" y="0" fill="#010101" font-family="'Calibri-Bold'" font-size="9.1181">i</tspan><tspan x="14.69" y="0" fill="#010101" font-family="'Calibri-Bold'" font-size="9.1181">o</tspan><tspan x="19.747" y="0" fill="#010101" font-family="'Calibri-Bold'" font-size="9.1181">d</tspan><tspan x="24.804" y="0" fill="#010101" font-family="'Calibri-Bold'" font-size="9.1181"> </tspan></text>
			</g>
		</g>
		<g>
			<defs>
				<polygon id="SVGID_21_" points="65.942,304.481 224.398,304.481 224.398,328.289 65.942,328.289 65.942,304.481 				"/>
			</defs>
			<clipPath id="SVGID_22_">
				<use xlink:href="#SVGID_21_"  overflow="visible"/>
			</clipPath>
			<g clip-path="url(#SVGID_22_)">
				<text transform="matrix(1.0026 0 0 1 140.0898 319.6631)"><tspan x="0" y="0" fill="#010101" font-family="'Calibri'" font-size="9.1181">2</tspan><tspan x="4.567" y="0" fill="#010101" font-family="'Calibri'" font-size="9.1181">0</tspan></text>
			</g>
			<g clip-path="url(#SVGID_22_)">
				<text transform="matrix(1.0026 0 0 1 186.8164 319.6631)"><tspan x="0" y="0" fill="#010101" font-family="'Calibri-Italic'" font-size="9.1181">y</tspan><tspan x="4.06" y="0" fill="#010101" font-family="'Calibri-Italic'" font-size="9.1181">e</tspan><tspan x="8.614" y="0" fill="#010101" font-family="'Calibri-Italic'" font-size="9.1181">a</tspan><tspan x="13.175" y="0" fill="#010101" font-family="'Calibri-Italic'" font-size="9.1181">r</tspan><tspan x="16.219" y="0" fill="#010101" font-family="'Calibri-Italic'" font-size="9.1181">s</tspan></text>
			</g>
		</g>
		<g>
			<defs>
				<polygon id="SVGID_23_" points="65.942,328.796 118.253,328.796 118.253,352.604 65.942,352.604 65.942,328.796 				"/>
			</defs>
			<clipPath id="SVGID_24_">
				<use xlink:href="#SVGID_23_"  overflow="visible"/>
			</clipPath>
			<g clip-path="url(#SVGID_24_)">
				<text transform="matrix(1.0026 0 0 1 67.4648 337.9053)"><tspan x="0" y="0" fill="#010101" font-family="'Calibri-Bold'" font-size="9.1181">C</tspan><tspan x="5.063" y="0" fill="#010101" font-family="'Calibri-Bold'" font-size="9.1181">o</tspan><tspan x="10.12" y="0" fill="#010101" font-family="'Calibri-Bold'" font-size="9.1181">n</tspan><tspan x="15.177" y="0" fill="#010101" font-family="'Calibri-Bold'" font-size="9.1181">s</tspan><tspan x="18.723" y="0" fill="#010101" font-family="'Calibri-Bold'" font-size="9.1181">t</tspan><tspan x="21.766" y="0" fill="#010101" font-family="'Calibri-Bold'" font-size="9.1181">r</tspan><tspan x="24.807" y="0" fill="#010101" font-family="'Calibri-Bold'" font-size="9.1181">u</tspan><tspan x="29.864" y="0" fill="#010101" font-family="'Calibri-Bold'" font-size="9.1181">c</tspan><tspan x="33.907" y="0" fill="#010101" font-family="'Calibri-Bold'" font-size="9.1181">ti</tspan><tspan x="39.036" y="0" fill="#010101" font-family="'Calibri-Bold'" font-size="9.1181">o</tspan><tspan x="44.092" y="0" fill="#010101" font-family="'Calibri-Bold'" font-size="9.1181">n</tspan><tspan x="49.15" y="0" fill="#010101" font-family="'Calibri-Bold'" font-size="9.1181"> </tspan></text>
			</g>
			<g clip-path="url(#SVGID_24_)">
				<text transform="matrix(1.0026 0 0 1 83.7227 350.0615)"><tspan x="0" y="0" fill="#010101" font-family="'Calibri-Bold'" font-size="9.1181">ti</tspan><tspan x="5.128" y="0" fill="#010101" font-family="'Calibri-Bold'" font-size="9.1181">m</tspan><tspan x="12.719" y="0" fill="#010101" font-family="'Calibri-Bold'" font-size="9.1181">e</tspan><tspan x="17.282" y="0" fill="#010101" font-family="'Calibri-Bold'" font-size="9.1181"> </tspan></text>
			</g>
		</g>
		<g>
			<defs>
				<polygon id="SVGID_25_" points="65.942,328.796 224.398,328.796 224.398,352.604 65.942,352.604 65.942,328.796 				"/>
			</defs>
			<clipPath id="SVGID_26_">
				<use xlink:href="#SVGID_25_"  overflow="visible"/>
			</clipPath>
			<g clip-path="url(#SVGID_26_)">
				<text transform="matrix(1.0026 0 0 1 142.6289 343.9834)" fill="#010101" font-family="'Calibri'" font-size="9.1181">4</text>
			</g>
			<g clip-path="url(#SVGID_26_)">
				<text transform="matrix(1.0026 0 0 1 186.8164 343.9834)"><tspan x="0" y="0" fill="#010101" font-family="'Calibri-Italic'" font-size="9.1181">y</tspan><tspan x="4.06" y="0" fill="#010101" font-family="'Calibri-Italic'" font-size="9.1181">e</tspan><tspan x="8.614" y="0" fill="#010101" font-family="'Calibri-Italic'" font-size="9.1181">a</tspan><tspan x="13.175" y="0" fill="#010101" font-family="'Calibri-Italic'" font-size="9.1181">r</tspan><tspan x="16.219" y="0" fill="#010101" font-family="'Calibri-Italic'" font-size="9.1181">s</tspan></text>
			</g>
		</g>
		<g>
			<defs>
				<polygon id="SVGID_27_" points="65.942,182.4 223.891,182.4 223.891,194.051 65.942,194.051 65.942,182.4 				"/>
			</defs>
			<clipPath id="SVGID_28_">
				<use xlink:href="#SVGID_27_"  overflow="visible"/>
			</clipPath>
			<g clip-path="url(#SVGID_28_)">
				<text transform="matrix(1.0026 0 0 1 129.4258 191.5068)"><tspan x="0" y="0" fill="#010101" font-family="'Calibri-Bold'" font-size="9.1181">T</tspan><tspan x="4.551" y="0" fill="#010101" font-family="'Calibri-Bold'" font-size="9.1181">U</tspan><tspan x="10.622" y="0" fill="#010101" font-family="'Calibri-Bold'" font-size="9.1181">NN</tspan><tspan x="22.761" y="0" fill="#010101" font-family="'Calibri-Bold'" font-size="9.1181">E</tspan><tspan x="27.319" y="0" fill="#010101" font-family="'Calibri-Bold'" font-size="9.1181">L</tspan></text>
			</g>
		</g>
		<g>
			<defs>
				<polygon id="SVGID_29_" points="65.942,194.557 223.891,194.557 223.891,206.208 65.942,206.208 65.942,194.557 				"/>
			</defs>
			<clipPath id="SVGID_30_">
				<use xlink:href="#SVGID_29_"  overflow="visible"/>
			</clipPath>
			<g clip-path="url(#SVGID_30_)">
				<text transform="matrix(1.0026 0 0 1 109.6211 203.6631)"><tspan x="0" y="0" fill="#010101" font-family="'Calibri-Bold'" font-size="9.1181">C</tspan><tspan x="5.063" y="0" fill="#010101" font-family="'Calibri-Bold'" font-size="9.1181">o</tspan><tspan x="10.12" y="0" fill="#010101" font-family="'Calibri-Bold'" font-size="9.1181">n</tspan><tspan x="15.177" y="0" fill="#010101" font-family="'Calibri-Bold'" font-size="9.1181">s</tspan><tspan x="18.723" y="0" fill="#010101" font-family="'Calibri-Bold'" font-size="9.1181">t</tspan><tspan x="21.766" y="0" fill="#010101" font-family="'Calibri-Bold'" font-size="9.1181">r</tspan><tspan x="24.807" y="0" fill="#010101" font-family="'Calibri-Bold'" font-size="9.1181">u</tspan><tspan x="29.864" y="0" fill="#010101" font-family="'Calibri-Bold'" font-size="9.1181">c</tspan><tspan x="33.907" y="0" fill="#010101" font-family="'Calibri-Bold'" font-size="9.1181">ti</tspan><tspan x="39.036" y="0" fill="#010101" font-family="'Calibri-Bold'" font-size="9.1181">o</tspan><tspan x="44.093" y="0" fill="#010101" font-family="'Calibri-Bold'" font-size="9.1181">n</tspan><tspan x="49.15" y="0" fill="#010101" font-family="'Calibri-Bold'" font-size="9.1181"> t</tspan><tspan x="51.184" y="0" fill="#010101" font-family="'Calibri-Bold'" font-size="9.1181">i</tspan><tspan x="56.312" y="0" fill="#010101" font-family="'Calibri-Bold'" font-size="9.1181">m</tspan><tspan x="63.903" y="0" fill="#010101" font-family="'Calibri-Bold'" font-size="9.1181">e</tspan><tspan x="68.465" y="0" fill="#010101" font-family="'Calibri-Bold'" font-size="9.1181"> </tspan></text>
			</g>
		</g>
		<g>
			<defs>
				<polygon id="SVGID_31_" points="65.434,181.893 224.398,181.893 224.398,353.111 65.434,353.111 65.434,181.893 				"/>
			</defs>
			<clipPath id="SVGID_32_">
				<use xlink:href="#SVGID_31_"  overflow="visible"/>
			</clipPath>
			<polyline clip-path="url(#SVGID_32_)" fill-rule="evenodd" clip-rule="evenodd" fill="#D4D4D4" points="65.434,181.893 
				65.434,181.893 65.942,181.893 65.942,181.893 65.434,181.893 			"/>
			<polyline clip-path="url(#SVGID_32_)" fill-rule="evenodd" clip-rule="evenodd" fill="#D4D4D4" points="223.891,181.893 
				223.891,181.893 224.398,181.893 224.398,181.893 223.891,181.893 			"/>
			<polyline clip-path="url(#SVGID_32_)" fill-rule="evenodd" clip-rule="evenodd" fill="#D4D4D4" points="118.253,181.893 
				118.253,181.893 118.761,181.893 118.761,181.893 118.253,181.893 			"/>
			<polyline clip-path="url(#SVGID_32_)" fill-rule="evenodd" clip-rule="evenodd" fill="#D4D4D4" points="171.072,181.893 
				171.072,181.893 171.58,181.893 171.58,181.893 171.072,181.893 			"/>
			
				<line clip-path="url(#SVGID_32_)" fill="none" stroke="#D4D4D4" stroke-width="0" stroke-linecap="square" stroke-miterlimit="10" x1="65.434" y1="206.715" x2="65.434" y2="353.617"/>
			<polyline clip-path="url(#SVGID_32_)" fill-rule="evenodd" clip-rule="evenodd" fill="#D4D4D4" points="65.434,206.715 
				65.434,353.617 65.942,353.617 65.942,206.715 65.434,206.715 			"/>
			
				<line clip-path="url(#SVGID_32_)" fill="none" stroke="#D4D4D4" stroke-width="0" stroke-linecap="square" stroke-miterlimit="10" x1="118.253" y1="206.715" x2="118.253" y2="353.617"/>
			<polyline clip-path="url(#SVGID_32_)" fill-rule="evenodd" clip-rule="evenodd" fill="#D4D4D4" points="118.253,206.715 
				118.253,353.617 118.761,353.617 118.761,206.715 118.253,206.715 			"/>
			
				<line clip-path="url(#SVGID_32_)" fill="none" stroke="#D4D4D4" stroke-width="0" stroke-linecap="square" stroke-miterlimit="10" x1="171.072" y1="206.715" x2="171.072" y2="353.617"/>
			<polyline clip-path="url(#SVGID_32_)" fill-rule="evenodd" clip-rule="evenodd" fill="#D4D4D4" points="171.072,206.715 
				171.072,353.617 171.58,353.617 171.58,206.715 171.072,206.715 			"/>
			
				<line clip-path="url(#SVGID_32_)" fill="none" stroke="#D4D4D4" stroke-width="0" stroke-linecap="square" stroke-miterlimit="10" x1="223.891" y1="206.715" x2="223.891" y2="353.617"/>
			<polyline clip-path="url(#SVGID_32_)" fill-rule="evenodd" clip-rule="evenodd" fill="#D4D4D4" points="223.891,206.715 
				223.891,353.617 224.398,353.617 224.398,206.715 223.891,206.715 			"/>
			
				<line clip-path="url(#SVGID_32_)" fill="none" stroke="#D4D4D4" stroke-width="0" stroke-linecap="square" stroke-miterlimit="10" x1="224.398" y1="181.893" x2="224.906" y2="181.893"/>
			<polyline clip-path="url(#SVGID_32_)" fill-rule="evenodd" clip-rule="evenodd" fill="#D4D4D4" points="224.398,181.893 
				224.398,182.4 224.906,182.4 224.906,181.893 224.398,181.893 			"/>
			
				<line clip-path="url(#SVGID_32_)" fill="none" stroke="#D4D4D4" stroke-width="0" stroke-linecap="square" stroke-miterlimit="10" x1="224.398" y1="194.051" x2="224.906" y2="194.051"/>
			<polyline clip-path="url(#SVGID_32_)" fill-rule="evenodd" clip-rule="evenodd" fill="#D4D4D4" points="224.398,194.051 
				224.398,194.557 224.906,194.557 224.906,194.051 224.398,194.051 			"/>
			
				<line clip-path="url(#SVGID_32_)" fill="none" stroke="#D4D4D4" stroke-width="0" stroke-linecap="square" stroke-miterlimit="10" x1="224.398" y1="206.208" x2="224.906" y2="206.208"/>
			<polyline clip-path="url(#SVGID_32_)" fill-rule="evenodd" clip-rule="evenodd" fill="#D4D4D4" points="224.398,206.208 
				224.398,206.715 224.906,206.715 224.906,206.208 224.398,206.208 			"/>
			
				<line clip-path="url(#SVGID_32_)" fill="none" stroke="#D4D4D4" stroke-width="0" stroke-linecap="square" stroke-miterlimit="10" x1="65.434" y1="218.872" x2="224.906" y2="218.872"/>
			<polyline clip-path="url(#SVGID_32_)" fill-rule="evenodd" clip-rule="evenodd" fill="#D4D4D4" points="65.434,218.872 
				65.434,219.379 224.906,219.379 224.906,218.872 65.434,218.872 			"/>
			
				<line clip-path="url(#SVGID_32_)" fill="none" stroke="#D4D4D4" stroke-width="0" stroke-linecap="square" stroke-miterlimit="10" x1="65.434" y1="231.03" x2="224.906" y2="231.03"/>
			<polyline clip-path="url(#SVGID_32_)" fill-rule="evenodd" clip-rule="evenodd" fill="#D4D4D4" points="65.434,231.03 
				65.434,231.536 224.906,231.536 224.906,231.03 65.434,231.03 			"/>
			
				<line clip-path="url(#SVGID_32_)" fill="none" stroke="#D4D4D4" stroke-width="0" stroke-linecap="square" stroke-miterlimit="10" x1="65.434" y1="243.187" x2="224.906" y2="243.187"/>
			<polyline clip-path="url(#SVGID_32_)" fill-rule="evenodd" clip-rule="evenodd" fill="#D4D4D4" points="65.434,243.187 
				65.434,243.694 224.906,243.694 224.906,243.187 65.434,243.187 			"/>
			
				<line clip-path="url(#SVGID_32_)" fill="none" stroke="#D4D4D4" stroke-width="0" stroke-linecap="square" stroke-miterlimit="10" x1="65.434" y1="267.502" x2="224.906" y2="267.502"/>
			<polyline clip-path="url(#SVGID_32_)" fill-rule="evenodd" clip-rule="evenodd" fill="#D4D4D4" points="65.434,267.502 
				65.434,268.009 224.906,268.009 224.906,267.502 65.434,267.502 			"/>
			
				<line clip-path="url(#SVGID_32_)" fill="none" stroke="#D4D4D4" stroke-width="0" stroke-linecap="square" stroke-miterlimit="10" x1="65.434" y1="279.659" x2="224.906" y2="279.659"/>
			<polyline clip-path="url(#SVGID_32_)" fill-rule="evenodd" clip-rule="evenodd" fill="#D4D4D4" points="65.434,279.659 
				65.434,280.166 224.906,280.166 224.906,279.659 65.434,279.659 			"/>
			
				<line clip-path="url(#SVGID_32_)" fill="none" stroke="#D4D4D4" stroke-width="0" stroke-linecap="square" stroke-miterlimit="10" x1="65.434" y1="303.975" x2="224.906" y2="303.975"/>
			<polyline clip-path="url(#SVGID_32_)" fill-rule="evenodd" clip-rule="evenodd" fill="#D4D4D4" points="65.434,303.975 
				65.434,304.481 224.906,304.481 224.906,303.975 65.434,303.975 			"/>
			
				<line clip-path="url(#SVGID_32_)" fill="none" stroke="#D4D4D4" stroke-width="0" stroke-linecap="square" stroke-miterlimit="10" x1="65.434" y1="328.289" x2="224.906" y2="328.289"/>
			<polyline clip-path="url(#SVGID_32_)" fill-rule="evenodd" clip-rule="evenodd" fill="#D4D4D4" points="65.434,328.289 
				65.434,328.796 224.906,328.796 224.906,328.289 65.434,328.289 			"/>
			
				<line clip-path="url(#SVGID_32_)" fill="none" stroke="#D4D4D4" stroke-width="0" stroke-linecap="square" stroke-miterlimit="10" x1="65.434" y1="352.604" x2="224.906" y2="352.604"/>
			<polyline clip-path="url(#SVGID_32_)" fill-rule="evenodd" clip-rule="evenodd" fill="#D4D4D4" points="65.434,352.604 
				65.434,353.111 224.906,353.111 224.906,352.604 65.434,352.604 			"/>
		</g>
		<g>
			<defs>
				<polygon id="SVGID_33_" points="65.942,182.4 224.398,182.4 224.398,353.111 65.942,353.111 65.942,182.4 				"/>
			</defs>
			<defs>
				<polygon id="SVGID_34_" points="65.942,182.4 224.398,182.4 224.398,353.111 65.942,353.111 65.942,182.4 				"/>
			</defs>
			<clipPath id="SVGID_35_">
				<use xlink:href="#SVGID_33_"  overflow="visible"/>
			</clipPath>
			<clipPath id="SVGID_36_" clip-path="url(#SVGID_35_)">
				<use xlink:href="#SVGID_34_"  overflow="visible"/>
			</clipPath>
		</g>
	</g>
	<g>
		<g>
			<line fill="none" stroke="#000000" stroke-width="2" stroke-miterlimit="10" x1="239.686" y1="237.5" x2="272.5" y2="237.5"/>
			<g>
				<polygon points="242.832,241.647 241.07,237.5 242.832,233.353 233,237.5 				"/>
			</g>
		</g>
	</g>
	<g>
		<g>
			<line fill="none" stroke="#000000" stroke-width="2" stroke-miterlimit="10" x1="239.686" y1="225.5" x2="272.5" y2="225.5"/>
			<g>
				<polygon points="242.832,229.647 241.07,225.5 242.832,221.353 233,225.5 				"/>
			</g>
		</g>
	</g>
	<text transform="matrix(1 0 0 1 281 228.5)" font-family="'MyriadPro-Regular'" font-size="12">corresponds to cost of lost energy</text>
	<text transform="matrix(1 0 0 1 281 240.5)" font-family="'MyriadPro-Regular'" font-size="12">corresponds to the construction costs</text>
	<g>
		<g>
			<line fill="none" stroke="#000000" stroke-width="2" stroke-miterlimit="10" x1="239.686" y1="256.5" x2="272.5" y2="256.5"/>
			<g>
				<polygon points="242.832,260.647 241.07,256.5 242.832,252.353 233,256.5 				"/>
			</g>
		</g>
	</g>
	<text transform="matrix(1 0 0 1 281 260)" font-family="'MyriadPro-Regular'" font-size="12">yearly operation and maintenance expenses represent 1% of initial investment</text>
	<text transform="matrix(1 0 0 1 281 277.5)" font-family="'MyriadPro-Regular'" font-size="12">yearly income represent 60% of initial investment</text>
	<g>
		<g>
			<line fill="none" stroke="#000000" stroke-width="2" stroke-miterlimit="10" x1="239.686" y1="274.5" x2="272.5" y2="274.5"/>
			<g>
				<polygon points="242.832,278.647 241.07,274.5 242.832,270.353 233,274.5 				"/>
			</g>
		</g>
	</g>
	<text transform="matrix(1 0 0 1 280.5 295.5)" font-family="'MyriadPro-Regular'" font-size="12">discount rate helps us account for the time value of money</text>
	<g>
		<g>
			<line fill="none" stroke="#000000" stroke-width="2" stroke-miterlimit="10" x1="239.686" y1="292.07" x2="272.5" y2="292.07"/>
			<g>
				<polygon points="242.832,296.218 241.07,292.07 242.832,287.923 233,292.07 				"/>
			</g>
		</g>
	</g>
	<g>
		<g>
			<line fill="none" stroke="#000000" stroke-width="2" stroke-miterlimit="10" x1="239.686" y1="341.5" x2="272.5" y2="341.5"/>
			<g>
				<polygon points="242.832,345.647 241.07,341.5 242.832,337.353 233,341.5 				"/>
			</g>
		</g>
	</g>
	<text transform="matrix(1 0 0 1 280.5 344.5)" font-family="'MyriadPro-Regular'" font-size="12">construction of the powerhouse will last 4 years</text>
</g>
<g id="regle" display="none">
</g>
</svg>
