<?xml version="1.0" encoding="utf-8"?>
<!-- Generator: Adobe Illustrator 16.0.0, SVG Export Plug-In . SVG Version: 6.00 Build 0)  -->
<!DOCTYPE svg PUBLIC "-//W3C//DTD SVG 1.1//EN" "http://www.w3.org/Graphics/SVG/1.1/DTD/svg11.dtd">
<svg version="1.1" id="Calque_1" xmlns="http://www.w3.org/2000/svg" xmlns:xlink="http://www.w3.org/1999/xlink" x="0px" y="0px"
	 width="841px" height="595px" viewBox="0 0 841 595" enable-background="new 0 0 841 595" xml:space="preserve">
<g>
	<defs>
		<rect id="SVGID_1_" y="-0.44" width="841.68" height="595.44"/>
	</defs>
	<clipPath id="SVGID_2_">
		<use xlink:href="#SVGID_1_"  overflow="visible"/>
	</clipPath>
</g>
<g>
	<defs>
		<rect id="SVGID_3_" x="33.31" y="5.04" width="747.72" height="558.7"/>
	</defs>
	<clipPath id="SVGID_4_">
		<use xlink:href="#SVGID_3_"  overflow="visible"/>
	</clipPath>
	
		<line clip-path="url(#SVGID_4_)" fill="none" stroke="#EBEBEB" stroke-width="0.53" stroke-linejoin="round" stroke-miterlimit="10" x1="33.31" y1="469.08" x2="781.02" y2="469.08"/>
	
		<line clip-path="url(#SVGID_4_)" fill="none" stroke="#EBEBEB" stroke-width="0.53" stroke-linejoin="round" stroke-miterlimit="10" x1="33.31" y1="353.65" x2="781.02" y2="353.65"/>
	
		<line clip-path="url(#SVGID_4_)" fill="none" stroke="#EBEBEB" stroke-width="0.53" stroke-linejoin="round" stroke-miterlimit="10" x1="33.31" y1="238.22" x2="781.02" y2="238.22"/>
	
		<line clip-path="url(#SVGID_4_)" fill="none" stroke="#EBEBEB" stroke-width="0.53" stroke-linejoin="round" stroke-miterlimit="10" x1="33.31" y1="122.78" x2="781.02" y2="122.78"/>
	
		<line clip-path="url(#SVGID_4_)" fill="none" stroke="#EBEBEB" stroke-width="0.53" stroke-linejoin="round" stroke-miterlimit="10" x1="33.31" y1="7.35" x2="781.02" y2="7.35"/>
	
		<line clip-path="url(#SVGID_4_)" fill="none" stroke="#EBEBEB" stroke-width="0.53" stroke-linejoin="round" stroke-miterlimit="10" x1="180.58" y1="563.74" x2="180.58" y2="5.04"/>
	
		<line clip-path="url(#SVGID_4_)" fill="none" stroke="#EBEBEB" stroke-width="0.53" stroke-linejoin="round" stroke-miterlimit="10" x1="369.4" y1="563.74" x2="369.4" y2="5.04"/>
	
		<line clip-path="url(#SVGID_4_)" fill="none" stroke="#EBEBEB" stroke-width="0.53" stroke-linejoin="round" stroke-miterlimit="10" x1="558.22" y1="563.74" x2="558.22" y2="5.04"/>
	
		<line clip-path="url(#SVGID_4_)" fill="none" stroke="#EBEBEB" stroke-width="0.53" stroke-linejoin="round" stroke-miterlimit="10" x1="747.04" y1="563.74" x2="747.04" y2="5.04"/>
	
		<line clip-path="url(#SVGID_4_)" fill="none" stroke="#EBEBEB" stroke-width="1.07" stroke-linejoin="round" stroke-miterlimit="10" x1="33.31" y1="526.8" x2="781.02" y2="526.8"/>
	
		<line clip-path="url(#SVGID_4_)" fill="none" stroke="#EBEBEB" stroke-width="1.07" stroke-linejoin="round" stroke-miterlimit="10" x1="33.31" y1="411.37" x2="781.02" y2="411.37"/>
	
		<line clip-path="url(#SVGID_4_)" fill="none" stroke="#EBEBEB" stroke-width="1.07" stroke-linejoin="round" stroke-miterlimit="10" x1="33.31" y1="295.93" x2="781.02" y2="295.93"/>
	
		<line clip-path="url(#SVGID_4_)" fill="none" stroke="#EBEBEB" stroke-width="1.07" stroke-linejoin="round" stroke-miterlimit="10" x1="33.31" y1="180.5" x2="781.02" y2="180.5"/>
	
		<line clip-path="url(#SVGID_4_)" fill="none" stroke="#EBEBEB" stroke-width="1.07" stroke-linejoin="round" stroke-miterlimit="10" x1="33.31" y1="65.07" x2="781.02" y2="65.07"/>
	
		<line clip-path="url(#SVGID_4_)" fill="none" stroke="#EBEBEB" stroke-width="1.07" stroke-linejoin="round" stroke-miterlimit="10" x1="86.18" y1="563.74" x2="86.18" y2="5.04"/>
	
		<line clip-path="url(#SVGID_4_)" fill="none" stroke="#EBEBEB" stroke-width="1.07" stroke-linejoin="round" stroke-miterlimit="10" x1="274.99" y1="563.74" x2="274.99" y2="5.04"/>
	
		<line clip-path="url(#SVGID_4_)" fill="none" stroke="#EBEBEB" stroke-width="1.07" stroke-linejoin="round" stroke-miterlimit="10" x1="463.81" y1="563.74" x2="463.81" y2="5.04"/>
	
		<line clip-path="url(#SVGID_4_)" fill="none" stroke="#EBEBEB" stroke-width="1.07" stroke-linejoin="round" stroke-miterlimit="10" x1="652.63" y1="563.74" x2="652.63" y2="5.04"/>
	
		<polyline clip-path="url(#SVGID_4_)" fill="none" stroke="#000000" stroke-width="2.56" stroke-linejoin="round" stroke-miterlimit="10" points="
		67.29,422.44 75.9,425.12 84.5,427.54 93.11,429.7 101.71,431.6 110.32,433.22 118.92,434.58 127.52,435.65 136.13,436.46 
		144.73,436.98 153.34,437.23 161.94,437.18 170.55,436.85 179.15,436.24 187.75,435.36 196.36,434.21 204.96,432.8 213.57,431.14 
		222.17,429.24 230.78,427.09 239.38,424.71 247.98,422.01 256.59,418.97 265.19,415.61 273.8,411.97 282.4,408.05 291.01,403.89 
		299.61,399.52 308.22,394.94 316.82,390.2 325.42,385.26 334.03,379.78 342.63,373.76 351.24,367.31 359.84,360.56 368.45,353.62 
		377.05,346.62 385.65,339.69 394.26,332.93 402.86,326.47 411.47,320.36 420.07,314.29 428.68,308.18 437.28,302.03 445.88,295.84 
		454.49,289.58 463.09,283.25 471.7,276.85 480.3,270.37 488.91,263.8 497.51,257.07 506.11,250.03 514.72,242.75 523.32,235.32 
		531.93,227.84 540.53,220.39 549.14,213.08 557.74,205.99 566.35,199.23 574.95,192.88 583.55,186.9 592.16,180.99 600.76,175.16 
		609.37,169.42 617.97,163.78 626.58,158.24 635.18,152.82 643.78,147.53 652.39,142.39 660.99,137.39 669.6,132.55 678.2,127.85 
		686.81,123.3 695.41,118.88 704.01,114.6 712.62,110.45 721.22,106.43 729.83,102.52 738.43,98.74 747.04,95.07 	"/>
	<path clip-path="url(#SVGID_4_)" fill="#7092CF" d="M64.49,457.54c0-1.54,1.26-2.81,2.8-2.81c1.55,0,2.81,1.27,2.81,2.81
		s-1.26,2.81-2.81,2.81C65.75,460.35,64.49,459.08,64.49,457.54"/>
	
		<path clip-path="url(#SVGID_4_)" fill="none" stroke="#7092CF" stroke-width="0.71" stroke-linecap="round" stroke-linejoin="round" stroke-miterlimit="10" d="
		M64.49,457.54c0-1.54,1.26-2.81,2.8-2.81c1.55,0,2.81,1.27,2.81,2.81s-1.26,2.81-2.81,2.81C65.75,460.35,64.49,459.08,64.49,457.54
		"/>
	<path clip-path="url(#SVGID_4_)" fill="#9494BA" d="M69.21,388.28c0-1.54,1.26-2.811,2.8-2.811c1.55,0,2.81,1.271,2.81,2.811
		s-1.26,2.81-2.81,2.81C70.47,391.09,69.21,389.82,69.21,388.28"/>
	
		<path clip-path="url(#SVGID_4_)" fill="none" stroke="#9494BA" stroke-width="0.71" stroke-linecap="round" stroke-linejoin="round" stroke-miterlimit="10" d="
		M69.21,388.28c0-1.54,1.26-2.811,2.8-2.811c1.55,0,2.81,1.271,2.81,2.811s-1.26,2.81-2.81,2.81
		C70.47,391.09,69.21,389.82,69.21,388.28"/>
	<path clip-path="url(#SVGID_4_)" fill="#7E92C8" d="M73.93,434.45c0-1.54,1.26-2.8,2.8-2.8c1.55,0,2.81,1.26,2.81,2.8
		c0,1.55-1.26,2.81-2.81,2.81C75.19,437.26,73.93,436,73.93,434.45"/>
	
		<path clip-path="url(#SVGID_4_)" fill="none" stroke="#7E92C8" stroke-width="0.71" stroke-linecap="round" stroke-linejoin="round" stroke-miterlimit="10" d="
		M73.93,434.45c0-1.54,1.26-2.8,2.8-2.8c1.55,0,2.81,1.26,2.81,2.8c0,1.55-1.26,2.81-2.81,2.81C75.19,437.26,73.93,436,73.93,434.45
		"/>
	<path clip-path="url(#SVGID_4_)" fill="#A796AC" d="M78.65,342.11c0-1.551,1.26-2.811,2.81-2.811c1.54,0,2.8,1.26,2.8,2.811
		c0,1.54-1.26,2.8-2.8,2.8C79.91,344.91,78.65,343.65,78.65,342.11"/>
	
		<path clip-path="url(#SVGID_4_)" fill="none" stroke="#A796AC" stroke-width="0.71" stroke-linecap="round" stroke-linejoin="round" stroke-miterlimit="10" d="
		M78.65,342.11c0-1.551,1.26-2.811,2.81-2.811c1.54,0,2.8,1.26,2.8,2.811c0,1.54-1.26,2.8-2.8,2.8
		C79.91,344.91,78.65,343.65,78.65,342.11"/>
	<path clip-path="url(#SVGID_4_)" fill="#8F93BD" d="M83.37,399.82c0-1.54,1.26-2.811,2.81-2.811c1.54,0,2.8,1.271,2.8,2.811
		c0,1.55-1.26,2.81-2.8,2.81C84.63,402.63,83.37,401.37,83.37,399.82"/>
	
		<path clip-path="url(#SVGID_4_)" fill="none" stroke="#8F93BD" stroke-width="0.71" stroke-linecap="round" stroke-linejoin="round" stroke-miterlimit="10" d="
		M83.37,399.82c0-1.54,1.26-2.811,2.81-2.811c1.54,0,2.8,1.271,2.8,2.811c0,1.55-1.26,2.81-2.8,2.81
		C84.63,402.63,83.37,401.37,83.37,399.82"/>
	<path clip-path="url(#SVGID_4_)" fill="#7E92C8" d="M88.09,434.45c0-1.54,1.26-2.8,2.81-2.8c1.54,0,2.8,1.26,2.8,2.8
		c0,1.55-1.26,2.81-2.8,2.81C89.35,437.26,88.09,436,88.09,434.45"/>
	
		<path clip-path="url(#SVGID_4_)" fill="none" stroke="#7E92C8" stroke-width="0.71" stroke-linecap="round" stroke-linejoin="round" stroke-miterlimit="10" d="
		M88.09,434.45c0-1.54,1.26-2.8,2.81-2.8c1.54,0,2.8,1.26,2.8,2.8c0,1.55-1.26,2.81-2.8,2.81C89.35,437.26,88.09,436,88.09,434.45"
		/>
	<path clip-path="url(#SVGID_4_)" fill="#8A93C1" d="M92.81,411.37c0-1.55,1.26-2.811,2.81-2.811c1.54,0,2.8,1.261,2.8,2.811
		c0,1.54-1.26,2.81-2.8,2.81C94.07,414.18,92.81,412.91,92.81,411.37"/>
	
		<path clip-path="url(#SVGID_4_)" fill="none" stroke="#8A93C1" stroke-width="0.71" stroke-linecap="round" stroke-linejoin="round" stroke-miterlimit="10" d="
		M92.81,411.37c0-1.55,1.26-2.811,2.81-2.811c1.54,0,2.8,1.261,2.8,2.811c0,1.54-1.26,2.81-2.8,2.81
		C94.07,414.18,92.81,412.91,92.81,411.37"/>
	<path clip-path="url(#SVGID_4_)" fill="#5690D9" d="M97.53,492.17c0-1.54,1.26-2.81,2.81-2.81c1.54,0,2.81,1.27,2.81,2.81
		s-1.27,2.811-2.81,2.811C98.79,494.98,97.53,493.71,97.53,492.17"/>
	
		<path clip-path="url(#SVGID_4_)" fill="none" stroke="#5690D9" stroke-width="0.71" stroke-linecap="round" stroke-linejoin="round" stroke-miterlimit="10" d="
		M97.53,492.17c0-1.54,1.26-2.81,2.81-2.81c1.54,0,2.81,1.27,2.81,2.81s-1.27,2.811-2.81,2.811
		C98.79,494.98,97.53,493.71,97.53,492.17"/>
	<path clip-path="url(#SVGID_4_)" fill="#008FE7" d="M102.25,538.34c0-1.54,1.26-2.8,2.81-2.8c1.54,0,2.81,1.26,2.81,2.8
		c0,1.55-1.27,2.811-2.81,2.811C103.51,541.15,102.25,539.89,102.25,538.34"/>
	
		<path clip-path="url(#SVGID_4_)" fill="none" stroke="#008FE7" stroke-width="0.71" stroke-linecap="round" stroke-linejoin="round" stroke-miterlimit="10" d="
		M102.25,538.34c0-1.54,1.26-2.8,2.81-2.8c1.54,0,2.81,1.26,2.81,2.8c0,1.55-1.27,2.811-2.81,2.811
		C103.51,541.15,102.25,539.89,102.25,538.34"/>
	<path clip-path="url(#SVGID_4_)" fill="#3D90E0" d="M106.97,515.26c0-1.55,1.26-2.81,2.81-2.81c1.54,0,2.81,1.26,2.81,2.81
		c0,1.54-1.27,2.811-2.81,2.811C108.23,518.07,106.97,516.8,106.97,515.26"/>
	
		<path clip-path="url(#SVGID_4_)" fill="none" stroke="#3D90E0" stroke-width="0.71" stroke-linecap="round" stroke-linejoin="round" stroke-miterlimit="10" d="
		M106.97,515.26c0-1.55,1.26-2.81,2.81-2.81c1.54,0,2.81,1.26,2.81,2.81c0,1.54-1.27,2.811-2.81,2.811
		C108.23,518.07,106.97,516.8,106.97,515.26"/>
	<path clip-path="url(#SVGID_4_)" fill="#8493C4" d="M111.69,422.91c0-1.54,1.26-2.811,2.81-2.811c1.54,0,2.81,1.271,2.81,2.811
		s-1.27,2.81-2.81,2.81C112.95,425.72,111.69,424.45,111.69,422.91"/>
	
		<path clip-path="url(#SVGID_4_)" fill="none" stroke="#8493C4" stroke-width="0.71" stroke-linecap="round" stroke-linejoin="round" stroke-miterlimit="10" d="
		M111.69,422.91c0-1.54,1.26-2.811,2.81-2.811c1.54,0,2.81,1.271,2.81,2.811s-1.27,2.81-2.81,2.81
		C112.95,425.72,111.69,424.45,111.69,422.91"/>
	<path clip-path="url(#SVGID_4_)" fill="#7E92C8" d="M116.41,434.45c0-1.54,1.26-2.8,2.81-2.8c1.54,0,2.81,1.26,2.81,2.8
		c0,1.55-1.27,2.81-2.81,2.81C117.67,437.26,116.41,436,116.41,434.45"/>
	
		<path clip-path="url(#SVGID_4_)" fill="none" stroke="#7E92C8" stroke-width="0.71" stroke-linecap="round" stroke-linejoin="round" stroke-miterlimit="10" d="
		M116.41,434.45c0-1.54,1.26-2.8,2.81-2.8c1.54,0,2.81,1.26,2.81,2.8c0,1.55-1.27,2.81-2.81,2.81
		C117.67,437.26,116.41,436,116.41,434.45"/>
	<path clip-path="url(#SVGID_4_)" fill="#6891D2" d="M121.13,469.08c0-1.54,1.26-2.8,2.81-2.8c1.54,0,2.81,1.26,2.81,2.8
		c0,1.55-1.27,2.81-2.81,2.81C122.39,471.89,121.13,470.63,121.13,469.08"/>
	
		<path clip-path="url(#SVGID_4_)" fill="none" stroke="#6891D2" stroke-width="0.71" stroke-linecap="round" stroke-linejoin="round" stroke-miterlimit="10" d="
		M121.13,469.08c0-1.54,1.26-2.8,2.81-2.8c1.54,0,2.81,1.26,2.81,2.8c0,1.55-1.27,2.81-2.81,2.81
		C122.39,471.89,121.13,470.63,121.13,469.08"/>
	<path clip-path="url(#SVGID_4_)" fill="#5690D9" d="M125.85,492.17c0-1.54,1.26-2.81,2.81-2.81c1.54,0,2.81,1.27,2.81,2.81
		s-1.27,2.811-2.81,2.811C127.11,494.98,125.85,493.71,125.85,492.17"/>
	
		<path clip-path="url(#SVGID_4_)" fill="none" stroke="#5690D9" stroke-width="0.71" stroke-linecap="round" stroke-linejoin="round" stroke-miterlimit="10" d="
		M125.85,492.17c0-1.54,1.26-2.81,2.81-2.81c1.54,0,2.81,1.27,2.81,2.81s-1.27,2.811-2.81,2.811
		C127.11,494.98,125.85,493.71,125.85,492.17"/>
	<path clip-path="url(#SVGID_4_)" fill="#B8979E" d="M130.57,295.93c0-1.54,1.27-2.81,2.81-2.81s2.81,1.27,2.81,2.81
		c0,1.55-1.27,2.81-2.81,2.81S130.57,297.48,130.57,295.93"/>
	
		<path clip-path="url(#SVGID_4_)" fill="none" stroke="#B8979E" stroke-width="0.71" stroke-linecap="round" stroke-linejoin="round" stroke-miterlimit="10" d="
		M130.57,295.93c0-1.54,1.27-2.81,2.81-2.81s2.81,1.27,2.81,2.81c0,1.55-1.27,2.81-2.81,2.81S130.57,297.48,130.57,295.93"/>
	<path clip-path="url(#SVGID_4_)" fill="#9E95B3" d="M135.29,365.19c0-1.54,1.27-2.811,2.81-2.811s2.81,1.271,2.81,2.811
		c0,1.55-1.27,2.81-2.81,2.81S135.29,366.74,135.29,365.19"/>
	
		<path clip-path="url(#SVGID_4_)" fill="none" stroke="#9E95B3" stroke-width="0.71" stroke-linecap="round" stroke-linejoin="round" stroke-miterlimit="10" d="
		M135.29,365.19c0-1.54,1.27-2.811,2.81-2.811s2.81,1.271,2.81,2.811c0,1.55-1.27,2.81-2.81,2.81S135.29,366.74,135.29,365.19"/>
	<path clip-path="url(#SVGID_4_)" fill="#8A93C1" d="M140.01,411.37c0-1.55,1.27-2.811,2.81-2.811c1.55,0,2.81,1.261,2.81,2.811
		c0,1.54-1.26,2.81-2.81,2.81C141.28,414.18,140.01,412.91,140.01,411.37"/>
	
		<path clip-path="url(#SVGID_4_)" fill="none" stroke="#8A93C1" stroke-width="0.71" stroke-linecap="round" stroke-linejoin="round" stroke-miterlimit="10" d="
		M140.01,411.37c0-1.55,1.27-2.811,2.81-2.811c1.55,0,2.81,1.261,2.81,2.811c0,1.54-1.26,2.81-2.81,2.81
		C141.28,414.18,140.01,412.91,140.01,411.37"/>
	<path clip-path="url(#SVGID_4_)" fill="#7E92C8" d="M144.73,434.45c0-1.54,1.27-2.8,2.81-2.8c1.55,0,2.81,1.26,2.81,2.8
		c0,1.55-1.26,2.81-2.81,2.81C146,437.26,144.73,436,144.73,434.45"/>
	
		<path clip-path="url(#SVGID_4_)" fill="none" stroke="#7E92C8" stroke-width="0.71" stroke-linecap="round" stroke-linejoin="round" stroke-miterlimit="10" d="
		M144.73,434.45c0-1.54,1.27-2.8,2.81-2.8c1.55,0,2.81,1.26,2.81,2.8c0,1.55-1.26,2.81-2.81,2.81
		C146,437.26,144.73,436,144.73,434.45"/>
	<path clip-path="url(#SVGID_4_)" fill="#B096A5" d="M149.45,319.02c0-1.55,1.27-2.81,2.81-2.81c1.55,0,2.81,1.26,2.81,2.81
		c0,1.54-1.26,2.811-2.81,2.811C150.72,321.83,149.45,320.56,149.45,319.02"/>
	
		<path clip-path="url(#SVGID_4_)" fill="none" stroke="#B096A5" stroke-width="0.71" stroke-linecap="round" stroke-linejoin="round" stroke-miterlimit="10" d="
		M149.45,319.02c0-1.55,1.27-2.81,2.81-2.81c1.55,0,2.81,1.26,2.81,2.81c0,1.54-1.26,2.811-2.81,2.811
		C150.72,321.83,149.45,320.56,149.45,319.02"/>
	<path clip-path="url(#SVGID_4_)" fill="#7E92C8" d="M154.17,434.45c0-1.54,1.27-2.8,2.81-2.8c1.55,0,2.81,1.26,2.81,2.8
		c0,1.55-1.26,2.81-2.81,2.81C155.44,437.26,154.17,436,154.17,434.45"/>
	
		<path clip-path="url(#SVGID_4_)" fill="none" stroke="#7E92C8" stroke-width="0.71" stroke-linecap="round" stroke-linejoin="round" stroke-miterlimit="10" d="
		M154.17,434.45c0-1.54,1.27-2.8,2.81-2.8c1.55,0,2.81,1.26,2.81,2.8c0,1.55-1.26,2.81-2.81,2.81
		C155.44,437.26,154.17,436,154.17,434.45"/>
	<path clip-path="url(#SVGID_4_)" fill="#8A93C1" d="M158.89,411.37c0-1.55,1.27-2.811,2.81-2.811c1.55,0,2.81,1.261,2.81,2.811
		c0,1.54-1.26,2.81-2.81,2.81C160.16,414.18,158.89,412.91,158.89,411.37"/>
	
		<path clip-path="url(#SVGID_4_)" fill="none" stroke="#8A93C1" stroke-width="0.71" stroke-linecap="round" stroke-linejoin="round" stroke-miterlimit="10" d="
		M158.89,411.37c0-1.55,1.27-2.811,2.81-2.811c1.55,0,2.81,1.261,2.81,2.811c0,1.54-1.26,2.81-2.81,2.81
		C160.16,414.18,158.89,412.91,158.89,411.37"/>
	<path clip-path="url(#SVGID_4_)" fill="#4B90DD" d="M163.61,503.71c0-1.54,1.27-2.8,2.81-2.8c1.55,0,2.81,1.26,2.81,2.8
		c0,1.55-1.26,2.81-2.81,2.81C164.88,506.52,163.61,505.26,163.61,503.71"/>
	
		<path clip-path="url(#SVGID_4_)" fill="none" stroke="#4B90DD" stroke-width="0.71" stroke-linecap="round" stroke-linejoin="round" stroke-miterlimit="10" d="
		M163.61,503.71c0-1.54,1.27-2.8,2.81-2.8c1.55,0,2.81,1.26,2.81,2.8c0,1.55-1.26,2.81-2.81,2.81
		C164.88,506.52,163.61,505.26,163.61,503.71"/>
	<path clip-path="url(#SVGID_4_)" fill="#8A93C1" d="M168.33,411.37c0-1.55,1.27-2.811,2.81-2.811c1.55,0,2.81,1.261,2.81,2.811
		c0,1.54-1.26,2.81-2.81,2.81C169.6,414.18,168.33,412.91,168.33,411.37"/>
	
		<path clip-path="url(#SVGID_4_)" fill="none" stroke="#8A93C1" stroke-width="0.71" stroke-linecap="round" stroke-linejoin="round" stroke-miterlimit="10" d="
		M168.33,411.37c0-1.55,1.27-2.811,2.81-2.811c1.55,0,2.81,1.261,2.81,2.811c0,1.54-1.26,2.81-2.81,2.81
		C169.6,414.18,168.33,412.91,168.33,411.37"/>
	<path clip-path="url(#SVGID_4_)" fill="#7E92C8" d="M173.06,434.45c0-1.54,1.26-2.8,2.8-2.8c1.55,0,2.81,1.26,2.81,2.8
		c0,1.55-1.26,2.81-2.81,2.81C174.32,437.26,173.06,436,173.06,434.45"/>
	
		<path clip-path="url(#SVGID_4_)" fill="none" stroke="#7E92C8" stroke-width="0.71" stroke-linecap="round" stroke-linejoin="round" stroke-miterlimit="10" d="
		M173.06,434.45c0-1.54,1.26-2.8,2.8-2.8c1.55,0,2.81,1.26,2.81,2.8c0,1.55-1.26,2.81-2.81,2.81
		C174.32,437.26,173.06,436,173.06,434.45"/>
	<path clip-path="url(#SVGID_4_)" fill="#7092CF" d="M177.78,457.54c0-1.54,1.26-2.81,2.8-2.81c1.55,0,2.81,1.27,2.81,2.81
		s-1.26,2.81-2.81,2.81C179.04,460.35,177.78,459.08,177.78,457.54"/>
	
		<path clip-path="url(#SVGID_4_)" fill="none" stroke="#7092CF" stroke-width="0.71" stroke-linecap="round" stroke-linejoin="round" stroke-miterlimit="10" d="
		M177.78,457.54c0-1.54,1.26-2.81,2.8-2.81c1.55,0,2.81,1.27,2.81,2.81s-1.26,2.81-2.81,2.81
		C179.04,460.35,177.78,459.08,177.78,457.54"/>
	<path clip-path="url(#SVGID_4_)" fill="#8493C4" d="M182.5,422.91c0-1.54,1.26-2.811,2.8-2.811c1.55,0,2.81,1.271,2.81,2.811
		s-1.26,2.81-2.81,2.81C183.76,425.72,182.5,424.45,182.5,422.91"/>
	
		<path clip-path="url(#SVGID_4_)" fill="none" stroke="#8493C4" stroke-width="0.71" stroke-linecap="round" stroke-linejoin="round" stroke-miterlimit="10" d="
		M182.5,422.91c0-1.54,1.26-2.811,2.8-2.811c1.55,0,2.81,1.271,2.81,2.811s-1.26,2.81-2.81,2.81
		C183.76,425.72,182.5,424.45,182.5,422.91"/>
	<path clip-path="url(#SVGID_4_)" fill="#7792CB" d="M187.22,446c0-1.55,1.26-2.81,2.81-2.81c1.54,0,2.8,1.26,2.8,2.81
		c0,1.54-1.26,2.81-2.8,2.81C188.48,448.81,187.22,447.54,187.22,446"/>
	
		<path clip-path="url(#SVGID_4_)" fill="none" stroke="#7792CB" stroke-width="0.71" stroke-linecap="round" stroke-linejoin="round" stroke-miterlimit="10" d="
		M187.22,446c0-1.55,1.26-2.81,2.81-2.81c1.54,0,2.8,1.26,2.8,2.81c0,1.54-1.26,2.81-2.8,2.81
		C188.48,448.81,187.22,447.54,187.22,446"/>
	<path clip-path="url(#SVGID_4_)" fill="#7792CB" d="M191.94,446c0-1.55,1.26-2.81,2.81-2.81c1.54,0,2.8,1.26,2.8,2.81
		c0,1.54-1.26,2.81-2.8,2.81C193.2,448.81,191.94,447.54,191.94,446"/>
	
		<path clip-path="url(#SVGID_4_)" fill="none" stroke="#7792CB" stroke-width="0.71" stroke-linecap="round" stroke-linejoin="round" stroke-miterlimit="10" d="
		M191.94,446c0-1.55,1.26-2.81,2.81-2.81c1.54,0,2.8,1.26,2.8,2.81c0,1.54-1.26,2.81-2.8,2.81
		C193.2,448.81,191.94,447.54,191.94,446"/>
	<path clip-path="url(#SVGID_4_)" fill="#7792CB" d="M196.66,446c0-1.55,1.26-2.81,2.81-2.81c1.54,0,2.8,1.26,2.8,2.81
		c0,1.54-1.26,2.81-2.8,2.81C197.92,448.81,196.66,447.54,196.66,446"/>
	
		<path clip-path="url(#SVGID_4_)" fill="none" stroke="#7792CB" stroke-width="0.71" stroke-linecap="round" stroke-linejoin="round" stroke-miterlimit="10" d="
		M196.66,446c0-1.55,1.26-2.81,2.81-2.81c1.54,0,2.8,1.26,2.8,2.81c0,1.54-1.26,2.81-2.8,2.81
		C197.92,448.81,196.66,447.54,196.66,446"/>
	<path clip-path="url(#SVGID_4_)" fill="#6891D2" d="M201.38,469.08c0-1.54,1.26-2.8,2.81-2.8c1.54,0,2.8,1.26,2.8,2.8
		c0,1.55-1.26,2.81-2.8,2.81C202.64,471.89,201.38,470.63,201.38,469.08"/>
	
		<path clip-path="url(#SVGID_4_)" fill="none" stroke="#6891D2" stroke-width="0.71" stroke-linecap="round" stroke-linejoin="round" stroke-miterlimit="10" d="
		M201.38,469.08c0-1.54,1.26-2.8,2.81-2.8c1.54,0,2.8,1.26,2.8,2.8c0,1.55-1.26,2.81-2.8,2.81
		C202.64,471.89,201.38,470.63,201.38,469.08"/>
	<path clip-path="url(#SVGID_4_)" fill="#3D90E0" d="M206.1,515.26c0-1.55,1.26-2.81,2.81-2.81c1.54,0,2.81,1.26,2.81,2.81
		c0,1.54-1.27,2.811-2.81,2.811C207.36,518.07,206.1,516.8,206.1,515.26"/>
	
		<path clip-path="url(#SVGID_4_)" fill="none" stroke="#3D90E0" stroke-width="0.71" stroke-linecap="round" stroke-linejoin="round" stroke-miterlimit="10" d="
		M206.1,515.26c0-1.55,1.26-2.81,2.81-2.81c1.54,0,2.81,1.26,2.81,2.81c0,1.54-1.27,2.811-2.81,2.811
		C207.36,518.07,206.1,516.8,206.1,515.26"/>
	<path clip-path="url(#SVGID_4_)" fill="#6891D2" d="M210.82,469.08c0-1.54,1.26-2.8,2.81-2.8c1.54,0,2.81,1.26,2.81,2.8
		c0,1.55-1.27,2.81-2.81,2.81C212.08,471.89,210.82,470.63,210.82,469.08"/>
	
		<path clip-path="url(#SVGID_4_)" fill="none" stroke="#6891D2" stroke-width="0.71" stroke-linecap="round" stroke-linejoin="round" stroke-miterlimit="10" d="
		M210.82,469.08c0-1.54,1.26-2.8,2.81-2.8c1.54,0,2.81,1.26,2.81,2.8c0,1.55-1.27,2.81-2.81,2.81
		C212.08,471.89,210.82,470.63,210.82,469.08"/>
	<path clip-path="url(#SVGID_4_)" fill="#4B90DD" d="M215.54,503.71c0-1.54,1.26-2.8,2.81-2.8c1.54,0,2.81,1.26,2.81,2.8
		c0,1.55-1.27,2.81-2.81,2.81C216.8,506.52,215.54,505.26,215.54,503.71"/>
	
		<path clip-path="url(#SVGID_4_)" fill="none" stroke="#4B90DD" stroke-width="0.71" stroke-linecap="round" stroke-linejoin="round" stroke-miterlimit="10" d="
		M215.54,503.71c0-1.54,1.26-2.8,2.81-2.8c1.54,0,2.81,1.26,2.81,2.8c0,1.55-1.27,2.81-2.81,2.81
		C216.8,506.52,215.54,505.26,215.54,503.71"/>
	<path clip-path="url(#SVGID_4_)" fill="#7092CF" d="M220.26,457.54c0-1.54,1.26-2.81,2.81-2.81c1.54,0,2.81,1.27,2.81,2.81
		s-1.27,2.81-2.81,2.81C221.52,460.35,220.26,459.08,220.26,457.54"/>
	
		<path clip-path="url(#SVGID_4_)" fill="none" stroke="#7092CF" stroke-width="0.71" stroke-linecap="round" stroke-linejoin="round" stroke-miterlimit="10" d="
		M220.26,457.54c0-1.54,1.26-2.81,2.81-2.81c1.54,0,2.81,1.27,2.81,2.81s-1.27,2.81-2.81,2.81
		C221.52,460.35,220.26,459.08,220.26,457.54"/>
	<path clip-path="url(#SVGID_4_)" fill="#6891D2" d="M224.98,469.08c0-1.54,1.26-2.8,2.81-2.8c1.54,0,2.81,1.26,2.81,2.8
		c0,1.55-1.27,2.81-2.81,2.81C226.24,471.89,224.98,470.63,224.98,469.08"/>
	
		<path clip-path="url(#SVGID_4_)" fill="none" stroke="#6891D2" stroke-width="0.71" stroke-linecap="round" stroke-linejoin="round" stroke-miterlimit="10" d="
		M224.98,469.08c0-1.54,1.26-2.8,2.81-2.8c1.54,0,2.81,1.26,2.81,2.8c0,1.55-1.27,2.81-2.81,2.81
		C226.24,471.89,224.98,470.63,224.98,469.08"/>
	<path clip-path="url(#SVGID_4_)" fill="#9E95B3" d="M229.7,365.19c0-1.54,1.26-2.811,2.81-2.811c1.54,0,2.81,1.271,2.81,2.811
		c0,1.55-1.27,2.81-2.81,2.81C230.96,368,229.7,366.74,229.7,365.19"/>
	
		<path clip-path="url(#SVGID_4_)" fill="none" stroke="#9E95B3" stroke-width="0.71" stroke-linecap="round" stroke-linejoin="round" stroke-miterlimit="10" d="
		M229.7,365.19c0-1.54,1.26-2.811,2.81-2.811c1.54,0,2.81,1.271,2.81,2.811c0,1.55-1.27,2.81-2.81,2.81
		C230.96,368,229.7,366.74,229.7,365.19"/>
	<path clip-path="url(#SVGID_4_)" fill="#8493C4" d="M234.42,422.91c0-1.54,1.26-2.811,2.81-2.811c1.54,0,2.81,1.271,2.81,2.811
		s-1.27,2.81-2.81,2.81C235.68,425.72,234.42,424.45,234.42,422.91"/>
	
		<path clip-path="url(#SVGID_4_)" fill="none" stroke="#8493C4" stroke-width="0.71" stroke-linecap="round" stroke-linejoin="round" stroke-miterlimit="10" d="
		M234.42,422.91c0-1.54,1.26-2.811,2.81-2.811c1.54,0,2.81,1.271,2.81,2.811s-1.27,2.81-2.81,2.81
		C235.68,425.72,234.42,424.45,234.42,422.91"/>
	<path clip-path="url(#SVGID_4_)" fill="#6091D6" d="M239.14,480.63c0-1.55,1.27-2.81,2.81-2.81s2.81,1.26,2.81,2.81
		c0,1.54-1.27,2.811-2.81,2.811S239.14,482.17,239.14,480.63"/>
	
		<path clip-path="url(#SVGID_4_)" fill="none" stroke="#6091D6" stroke-width="0.71" stroke-linecap="round" stroke-linejoin="round" stroke-miterlimit="10" d="
		M239.14,480.63c0-1.55,1.27-2.81,2.81-2.81s2.81,1.26,2.81,2.81c0,1.54-1.27,2.811-2.81,2.811S239.14,482.17,239.14,480.63"/>
	<path clip-path="url(#SVGID_4_)" fill="#AC96A8" d="M243.86,330.56c0-1.54,1.27-2.81,2.81-2.81s2.81,1.27,2.81,2.81
		c0,1.551-1.27,2.811-2.81,2.811S243.86,332.11,243.86,330.56"/>
	
		<path clip-path="url(#SVGID_4_)" fill="none" stroke="#AC96A8" stroke-width="0.71" stroke-linecap="round" stroke-linejoin="round" stroke-miterlimit="10" d="
		M243.86,330.56c0-1.54,1.27-2.81,2.81-2.81s2.81,1.27,2.81,2.81c0,1.551-1.27,2.811-2.81,2.811S243.86,332.11,243.86,330.56"/>
	<path clip-path="url(#SVGID_4_)" fill="#9494BA" d="M248.58,388.28c0-1.54,1.27-2.811,2.81-2.811c1.55,0,2.81,1.271,2.81,2.811
		s-1.26,2.81-2.81,2.81C249.85,391.09,248.58,389.82,248.58,388.28"/>
	
		<path clip-path="url(#SVGID_4_)" fill="none" stroke="#9494BA" stroke-width="0.71" stroke-linecap="round" stroke-linejoin="round" stroke-miterlimit="10" d="
		M248.58,388.28c0-1.54,1.27-2.811,2.81-2.811c1.55,0,2.81,1.271,2.81,2.811s-1.26,2.81-2.81,2.81
		C249.85,391.09,248.58,389.82,248.58,388.28"/>
	<path clip-path="url(#SVGID_4_)" fill="#A395AF" d="M253.3,353.65c0-1.54,1.27-2.811,2.81-2.811c1.55,0,2.81,1.271,2.81,2.811
		s-1.26,2.81-2.81,2.81C254.57,356.46,253.3,355.19,253.3,353.65"/>
	
		<path clip-path="url(#SVGID_4_)" fill="none" stroke="#A395AF" stroke-width="0.71" stroke-linecap="round" stroke-linejoin="round" stroke-miterlimit="10" d="
		M253.3,353.65c0-1.54,1.27-2.811,2.81-2.811c1.55,0,2.81,1.271,2.81,2.811s-1.26,2.81-2.81,2.81
		C254.57,356.46,253.3,355.19,253.3,353.65"/>
	<path clip-path="url(#SVGID_4_)" fill="#7092CF" d="M258.02,457.54c0-1.54,1.27-2.81,2.81-2.81c1.55,0,2.81,1.27,2.81,2.81
		s-1.26,2.81-2.81,2.81C259.29,460.35,258.02,459.08,258.02,457.54"/>
	
		<path clip-path="url(#SVGID_4_)" fill="none" stroke="#7092CF" stroke-width="0.71" stroke-linecap="round" stroke-linejoin="round" stroke-miterlimit="10" d="
		M258.02,457.54c0-1.54,1.27-2.81,2.81-2.81c1.55,0,2.81,1.27,2.81,2.81s-1.26,2.81-2.81,2.81
		C259.29,460.35,258.02,459.08,258.02,457.54"/>
	<path clip-path="url(#SVGID_4_)" fill="#7E92C8" d="M262.74,434.45c0-1.54,1.27-2.8,2.81-2.8c1.55,0,2.81,1.26,2.81,2.8
		c0,1.55-1.26,2.81-2.81,2.81C264.01,437.26,262.74,436,262.74,434.45"/>
	
		<path clip-path="url(#SVGID_4_)" fill="none" stroke="#7E92C8" stroke-width="0.71" stroke-linecap="round" stroke-linejoin="round" stroke-miterlimit="10" d="
		M262.74,434.45c0-1.54,1.27-2.8,2.81-2.8c1.55,0,2.81,1.26,2.81,2.8c0,1.55-1.26,2.81-2.81,2.81
		C264.01,437.26,262.74,436,262.74,434.45"/>
	<path clip-path="url(#SVGID_4_)" fill="#8F93BD" d="M267.46,399.82c0-1.54,1.27-2.811,2.81-2.811c1.55,0,2.81,1.271,2.81,2.811
		c0,1.55-1.26,2.81-2.81,2.81C268.73,402.63,267.46,401.37,267.46,399.82"/>
	
		<path clip-path="url(#SVGID_4_)" fill="none" stroke="#8F93BD" stroke-width="0.71" stroke-linecap="round" stroke-linejoin="round" stroke-miterlimit="10" d="
		M267.46,399.82c0-1.54,1.27-2.811,2.81-2.811c1.55,0,2.81,1.271,2.81,2.811c0,1.55-1.26,2.81-2.81,2.81
		C268.73,402.63,267.46,401.37,267.46,399.82"/>
	<path clip-path="url(#SVGID_4_)" fill="#9494BA" d="M272.18,388.28c0-1.54,1.27-2.811,2.81-2.811c1.55,0,2.81,1.271,2.81,2.811
		s-1.26,2.81-2.81,2.81C273.45,391.09,272.18,389.82,272.18,388.28"/>
	
		<path clip-path="url(#SVGID_4_)" fill="none" stroke="#9494BA" stroke-width="0.71" stroke-linecap="round" stroke-linejoin="round" stroke-miterlimit="10" d="
		M272.18,388.28c0-1.54,1.27-2.811,2.81-2.811c1.55,0,2.81,1.271,2.81,2.811s-1.26,2.81-2.81,2.81
		C273.45,391.09,272.18,389.82,272.18,388.28"/>
	<path clip-path="url(#SVGID_4_)" fill="#7092CF" d="M276.9,457.54c0-1.54,1.27-2.81,2.81-2.81c1.55,0,2.81,1.27,2.81,2.81
		s-1.26,2.81-2.81,2.81C278.17,460.35,276.9,459.08,276.9,457.54"/>
	
		<path clip-path="url(#SVGID_4_)" fill="none" stroke="#7092CF" stroke-width="0.71" stroke-linecap="round" stroke-linejoin="round" stroke-miterlimit="10" d="
		M276.9,457.54c0-1.54,1.27-2.81,2.81-2.81c1.55,0,2.81,1.27,2.81,2.81s-1.26,2.81-2.81,2.81
		C278.17,460.35,276.9,459.08,276.9,457.54"/>
	<path clip-path="url(#SVGID_4_)" fill="#9E95B3" d="M281.63,365.19c0-1.54,1.26-2.811,2.8-2.811c1.55,0,2.81,1.271,2.81,2.811
		c0,1.55-1.26,2.81-2.81,2.81C282.89,368,281.63,366.74,281.63,365.19"/>
	
		<path clip-path="url(#SVGID_4_)" fill="none" stroke="#9E95B3" stroke-width="0.71" stroke-linecap="round" stroke-linejoin="round" stroke-miterlimit="10" d="
		M281.63,365.19c0-1.54,1.26-2.811,2.8-2.811c1.55,0,2.81,1.271,2.81,2.811c0,1.55-1.26,2.81-2.81,2.81
		C282.89,368,281.63,366.74,281.63,365.19"/>
	<path clip-path="url(#SVGID_4_)" fill="#9494BA" d="M286.35,388.28c0-1.54,1.26-2.811,2.8-2.811c1.55,0,2.81,1.271,2.81,2.811
		s-1.26,2.81-2.81,2.81C287.61,391.09,286.35,389.82,286.35,388.28"/>
	
		<path clip-path="url(#SVGID_4_)" fill="none" stroke="#9494BA" stroke-width="0.71" stroke-linecap="round" stroke-linejoin="round" stroke-miterlimit="10" d="
		M286.35,388.28c0-1.54,1.26-2.811,2.8-2.811c1.55,0,2.81,1.271,2.81,2.811s-1.26,2.81-2.81,2.81
		C287.61,391.09,286.35,389.82,286.35,388.28"/>
	<path clip-path="url(#SVGID_4_)" fill="#8A93C1" d="M291.07,411.37c0-1.55,1.26-2.811,2.8-2.811c1.55,0,2.81,1.261,2.81,2.811
		c0,1.54-1.26,2.81-2.81,2.81C292.33,414.18,291.07,412.91,291.07,411.37"/>
	
		<path clip-path="url(#SVGID_4_)" fill="none" stroke="#8A93C1" stroke-width="0.71" stroke-linecap="round" stroke-linejoin="round" stroke-miterlimit="10" d="
		M291.07,411.37c0-1.55,1.26-2.811,2.8-2.811c1.55,0,2.81,1.261,2.81,2.811c0,1.54-1.26,2.81-2.81,2.81
		C292.33,414.18,291.07,412.91,291.07,411.37"/>
	<path clip-path="url(#SVGID_4_)" fill="#7E92C8" d="M295.79,434.45c0-1.54,1.26-2.8,2.81-2.8c1.54,0,2.8,1.26,2.8,2.8
		c0,1.55-1.26,2.81-2.8,2.81C297.05,437.26,295.79,436,295.79,434.45"/>
	
		<path clip-path="url(#SVGID_4_)" fill="none" stroke="#7E92C8" stroke-width="0.71" stroke-linecap="round" stroke-linejoin="round" stroke-miterlimit="10" d="
		M295.79,434.45c0-1.54,1.26-2.8,2.81-2.8c1.54,0,2.8,1.26,2.8,2.8c0,1.55-1.26,2.81-2.8,2.81
		C297.05,437.26,295.79,436,295.79,434.45"/>
	<path clip-path="url(#SVGID_4_)" fill="#7092CF" d="M300.51,457.54c0-1.54,1.26-2.81,2.81-2.81c1.54,0,2.8,1.27,2.8,2.81
		s-1.26,2.81-2.8,2.81C301.77,460.35,300.51,459.08,300.51,457.54"/>
	
		<path clip-path="url(#SVGID_4_)" fill="none" stroke="#7092CF" stroke-width="0.71" stroke-linecap="round" stroke-linejoin="round" stroke-miterlimit="10" d="
		M300.51,457.54c0-1.54,1.26-2.81,2.81-2.81c1.54,0,2.8,1.27,2.8,2.81s-1.26,2.81-2.8,2.81
		C301.77,460.35,300.51,459.08,300.51,457.54"/>
	<path clip-path="url(#SVGID_4_)" fill="#8F93BD" d="M305.23,399.82c0-1.54,1.26-2.811,2.81-2.811c1.54,0,2.8,1.271,2.8,2.811
		c0,1.55-1.26,2.81-2.8,2.81C306.49,402.63,305.23,401.37,305.23,399.82"/>
	
		<path clip-path="url(#SVGID_4_)" fill="none" stroke="#8F93BD" stroke-width="0.71" stroke-linecap="round" stroke-linejoin="round" stroke-miterlimit="10" d="
		M305.23,399.82c0-1.54,1.26-2.811,2.81-2.811c1.54,0,2.8,1.271,2.8,2.811c0,1.55-1.26,2.81-2.8,2.81
		C306.49,402.63,305.23,401.37,305.23,399.82"/>
	<path clip-path="url(#SVGID_4_)" fill="#8F93BD" d="M309.95,399.82c0-1.54,1.26-2.811,2.81-2.811c1.54,0,2.8,1.271,2.8,2.811
		c0,1.55-1.26,2.81-2.8,2.81C311.21,402.63,309.95,401.37,309.95,399.82"/>
	
		<path clip-path="url(#SVGID_4_)" fill="none" stroke="#8F93BD" stroke-width="0.71" stroke-linecap="round" stroke-linejoin="round" stroke-miterlimit="10" d="
		M309.95,399.82c0-1.54,1.26-2.811,2.81-2.811c1.54,0,2.8,1.271,2.8,2.811c0,1.55-1.26,2.81-2.8,2.81
		C311.21,402.63,309.95,401.37,309.95,399.82"/>
	<path clip-path="url(#SVGID_4_)" fill="#9994B6" d="M314.67,376.74c0-1.55,1.26-2.811,2.81-2.811c1.54,0,2.81,1.261,2.81,2.811
		c0,1.54-1.27,2.8-2.81,2.8C315.93,379.54,314.67,378.28,314.67,376.74"/>
	
		<path clip-path="url(#SVGID_4_)" fill="none" stroke="#9994B6" stroke-width="0.71" stroke-linecap="round" stroke-linejoin="round" stroke-miterlimit="10" d="
		M314.67,376.74c0-1.55,1.26-2.811,2.81-2.811c1.54,0,2.81,1.261,2.81,2.811c0,1.54-1.27,2.8-2.81,2.8
		C315.93,379.54,314.67,378.28,314.67,376.74"/>
	<path clip-path="url(#SVGID_4_)" fill="#B096A5" d="M319.39,319.02c0-1.55,1.26-2.81,2.81-2.81c1.54,0,2.81,1.26,2.81,2.81
		c0,1.54-1.27,2.811-2.81,2.811C320.65,321.83,319.39,320.56,319.39,319.02"/>
	
		<path clip-path="url(#SVGID_4_)" fill="none" stroke="#B096A5" stroke-width="0.71" stroke-linecap="round" stroke-linejoin="round" stroke-miterlimit="10" d="
		M319.39,319.02c0-1.55,1.26-2.81,2.81-2.81c1.54,0,2.81,1.26,2.81,2.81c0,1.54-1.27,2.811-2.81,2.811
		C320.65,321.83,319.39,320.56,319.39,319.02"/>
	<path clip-path="url(#SVGID_4_)" fill="#8A93C1" d="M324.11,411.37c0-1.55,1.26-2.811,2.81-2.811c1.54,0,2.81,1.261,2.81,2.811
		c0,1.54-1.27,2.81-2.81,2.81C325.37,414.18,324.11,412.91,324.11,411.37"/>
	
		<path clip-path="url(#SVGID_4_)" fill="none" stroke="#8A93C1" stroke-width="0.71" stroke-linecap="round" stroke-linejoin="round" stroke-miterlimit="10" d="
		M324.11,411.37c0-1.55,1.26-2.811,2.81-2.811c1.54,0,2.81,1.261,2.81,2.811c0,1.54-1.27,2.81-2.81,2.81
		C325.37,414.18,324.11,412.91,324.11,411.37"/>
	<path clip-path="url(#SVGID_4_)" fill="#A796AC" d="M328.83,342.11c0-1.551,1.26-2.811,2.81-2.811c1.54,0,2.81,1.26,2.81,2.811
		c0,1.54-1.27,2.8-2.81,2.8C330.09,344.91,328.83,343.65,328.83,342.11"/>
	
		<path clip-path="url(#SVGID_4_)" fill="none" stroke="#A796AC" stroke-width="0.71" stroke-linecap="round" stroke-linejoin="round" stroke-miterlimit="10" d="
		M328.83,342.11c0-1.551,1.26-2.811,2.81-2.811c1.54,0,2.81,1.26,2.81,2.811c0,1.54-1.27,2.8-2.81,2.8
		C330.09,344.91,328.83,343.65,328.83,342.11"/>
	<path clip-path="url(#SVGID_4_)" fill="#AC96A8" d="M333.55,330.56c0-1.54,1.26-2.81,2.81-2.81c1.54,0,2.81,1.27,2.81,2.81
		c0,1.551-1.27,2.811-2.81,2.811C334.81,333.37,333.55,332.11,333.55,330.56"/>
	
		<path clip-path="url(#SVGID_4_)" fill="none" stroke="#AC96A8" stroke-width="0.71" stroke-linecap="round" stroke-linejoin="round" stroke-miterlimit="10" d="
		M333.55,330.56c0-1.54,1.26-2.81,2.81-2.81c1.54,0,2.81,1.27,2.81,2.81c0,1.551-1.27,2.811-2.81,2.811
		C334.81,333.37,333.55,332.11,333.55,330.56"/>
	<path clip-path="url(#SVGID_4_)" fill="#8493C4" d="M338.27,422.91c0-1.54,1.26-2.811,2.81-2.811c1.54,0,2.81,1.271,2.81,2.811
		s-1.27,2.81-2.81,2.81C339.53,425.72,338.27,424.45,338.27,422.91"/>
	
		<path clip-path="url(#SVGID_4_)" fill="none" stroke="#8493C4" stroke-width="0.71" stroke-linecap="round" stroke-linejoin="round" stroke-miterlimit="10" d="
		M338.27,422.91c0-1.54,1.26-2.811,2.81-2.811c1.54,0,2.81,1.271,2.81,2.811s-1.27,2.81-2.81,2.81
		C339.53,425.72,338.27,424.45,338.27,422.91"/>
	<path clip-path="url(#SVGID_4_)" fill="#8F93BD" d="M342.99,399.82c0-1.54,1.26-2.811,2.81-2.811c1.54,0,2.81,1.271,2.81,2.811
		c0,1.55-1.27,2.81-2.81,2.81C344.25,402.63,342.99,401.37,342.99,399.82"/>
	
		<path clip-path="url(#SVGID_4_)" fill="none" stroke="#8F93BD" stroke-width="0.71" stroke-linecap="round" stroke-linejoin="round" stroke-miterlimit="10" d="
		M342.99,399.82c0-1.54,1.26-2.811,2.81-2.811c1.54,0,2.81,1.271,2.81,2.811c0,1.55-1.27,2.81-2.81,2.81
		C344.25,402.63,342.99,401.37,342.99,399.82"/>
	<path clip-path="url(#SVGID_4_)" fill="#8F93BD" d="M347.71,399.82c0-1.54,1.27-2.811,2.81-2.811s2.81,1.271,2.81,2.811
		c0,1.55-1.27,2.81-2.81,2.81S347.71,401.37,347.71,399.82"/>
	
		<path clip-path="url(#SVGID_4_)" fill="none" stroke="#8F93BD" stroke-width="0.71" stroke-linecap="round" stroke-linejoin="round" stroke-miterlimit="10" d="
		M347.71,399.82c0-1.54,1.27-2.811,2.81-2.811s2.81,1.271,2.81,2.811c0,1.55-1.27,2.81-2.81,2.81S347.71,401.37,347.71,399.82"/>
	<path clip-path="url(#SVGID_4_)" fill="#B497A1" d="M352.43,307.48c0-1.551,1.27-2.811,2.81-2.811c1.54,0,2.81,1.26,2.81,2.811
		c0,1.539-1.27,2.8-2.81,2.8C353.7,310.28,352.43,309.02,352.43,307.48"/>
	
		<path clip-path="url(#SVGID_4_)" fill="none" stroke="#B497A1" stroke-width="0.71" stroke-linecap="round" stroke-linejoin="round" stroke-miterlimit="10" d="
		M352.43,307.48c0-1.551,1.27-2.811,2.81-2.811c1.54,0,2.81,1.26,2.81,2.811c0,1.539-1.27,2.8-2.81,2.8
		C353.7,310.28,352.43,309.02,352.43,307.48"/>
	<path clip-path="url(#SVGID_4_)" fill="#A395AF" d="M357.15,353.65c0-1.54,1.27-2.811,2.81-2.811c1.55,0,2.81,1.271,2.81,2.811
		s-1.26,2.81-2.81,2.81C358.42,356.46,357.15,355.19,357.15,353.65"/>
	
		<path clip-path="url(#SVGID_4_)" fill="none" stroke="#A395AF" stroke-width="0.71" stroke-linecap="round" stroke-linejoin="round" stroke-miterlimit="10" d="
		M357.15,353.65c0-1.54,1.27-2.811,2.81-2.811c1.55,0,2.81,1.271,2.81,2.811s-1.26,2.81-2.81,2.81
		C358.42,356.46,357.15,355.19,357.15,353.65"/>
	<path clip-path="url(#SVGID_4_)" fill="#AC96A8" d="M361.87,330.56c0-1.54,1.27-2.81,2.81-2.81c1.55,0,2.81,1.27,2.81,2.81
		c0,1.551-1.26,2.811-2.81,2.811C363.14,333.37,361.87,332.11,361.87,330.56"/>
	
		<path clip-path="url(#SVGID_4_)" fill="none" stroke="#AC96A8" stroke-width="0.71" stroke-linecap="round" stroke-linejoin="round" stroke-miterlimit="10" d="
		M361.87,330.56c0-1.54,1.27-2.81,2.81-2.81c1.55,0,2.81,1.27,2.81,2.81c0,1.551-1.26,2.811-2.81,2.811
		C363.14,333.37,361.87,332.11,361.87,330.56"/>
	<path clip-path="url(#SVGID_4_)" fill="#B096A5" d="M366.59,319.02c0-1.55,1.27-2.81,2.81-2.81c1.55,0,2.81,1.26,2.81,2.81
		c0,1.54-1.26,2.811-2.81,2.811C367.86,321.83,366.59,320.56,366.59,319.02"/>
	
		<path clip-path="url(#SVGID_4_)" fill="none" stroke="#B096A5" stroke-width="0.71" stroke-linecap="round" stroke-linejoin="round" stroke-miterlimit="10" d="
		M366.59,319.02c0-1.55,1.27-2.81,2.81-2.81c1.55,0,2.81,1.26,2.81,2.81c0,1.54-1.26,2.811-2.81,2.811
		C367.86,321.83,366.59,320.56,366.59,319.02"/>
	<path clip-path="url(#SVGID_4_)" fill="#A796AC" d="M371.31,342.11c0-1.551,1.27-2.811,2.81-2.811c1.55,0,2.81,1.26,2.81,2.811
		c0,1.54-1.26,2.8-2.81,2.8C372.58,344.91,371.31,343.65,371.31,342.11"/>
	
		<path clip-path="url(#SVGID_4_)" fill="none" stroke="#A796AC" stroke-width="0.71" stroke-linecap="round" stroke-linejoin="round" stroke-miterlimit="10" d="
		M371.31,342.11c0-1.551,1.27-2.811,2.81-2.811c1.55,0,2.81,1.26,2.81,2.811c0,1.54-1.26,2.8-2.81,2.8
		C372.58,344.91,371.31,343.65,371.31,342.11"/>
	<path clip-path="url(#SVGID_4_)" fill="#B8979E" d="M376.03,295.93c0-1.54,1.27-2.81,2.81-2.81c1.55,0,2.81,1.27,2.81,2.81
		c0,1.55-1.26,2.81-2.81,2.81C377.3,298.74,376.03,297.48,376.03,295.93"/>
	
		<path clip-path="url(#SVGID_4_)" fill="none" stroke="#B8979E" stroke-width="0.71" stroke-linecap="round" stroke-linejoin="round" stroke-miterlimit="10" d="
		M376.03,295.93c0-1.54,1.27-2.81,2.81-2.81c1.55,0,2.81,1.27,2.81,2.81c0,1.55-1.26,2.81-2.81,2.81
		C377.3,298.74,376.03,297.48,376.03,295.93"/>
	<path clip-path="url(#SVGID_4_)" fill="#A796AC" d="M380.75,342.11c0-1.551,1.27-2.811,2.81-2.811c1.55,0,2.81,1.26,2.81,2.811
		c0,1.54-1.26,2.8-2.81,2.8C382.02,344.91,380.75,343.65,380.75,342.11"/>
	
		<path clip-path="url(#SVGID_4_)" fill="none" stroke="#A796AC" stroke-width="0.71" stroke-linecap="round" stroke-linejoin="round" stroke-miterlimit="10" d="
		M380.75,342.11c0-1.551,1.27-2.811,2.81-2.811c1.55,0,2.81,1.26,2.81,2.811c0,1.54-1.26,2.8-2.81,2.8
		C382.02,344.91,380.75,343.65,380.75,342.11"/>
	<path clip-path="url(#SVGID_4_)" fill="#9494BA" d="M385.47,388.28c0-1.54,1.27-2.811,2.81-2.811c1.55,0,2.81,1.271,2.81,2.811
		s-1.26,2.81-2.81,2.81C386.74,391.09,385.47,389.82,385.47,388.28"/>
	
		<path clip-path="url(#SVGID_4_)" fill="none" stroke="#9494BA" stroke-width="0.71" stroke-linecap="round" stroke-linejoin="round" stroke-miterlimit="10" d="
		M385.47,388.28c0-1.54,1.27-2.811,2.81-2.811c1.55,0,2.81,1.271,2.81,2.811s-1.26,2.81-2.81,2.81
		C386.74,391.09,385.47,389.82,385.47,388.28"/>
	<path clip-path="url(#SVGID_4_)" fill="#7092CF" d="M390.2,457.54c0-1.54,1.26-2.81,2.8-2.81c1.55,0,2.81,1.27,2.81,2.81
		s-1.26,2.81-2.81,2.81C391.46,460.35,390.2,459.08,390.2,457.54"/>
	
		<path clip-path="url(#SVGID_4_)" fill="none" stroke="#7092CF" stroke-width="0.71" stroke-linecap="round" stroke-linejoin="round" stroke-miterlimit="10" d="
		M390.2,457.54c0-1.54,1.26-2.81,2.8-2.81c1.55,0,2.81,1.27,2.81,2.81s-1.26,2.81-2.81,2.81
		C391.46,460.35,390.2,459.08,390.2,457.54"/>
	<path clip-path="url(#SVGID_4_)" fill="#B497A1" d="M394.92,307.48c0-1.551,1.26-2.811,2.8-2.811c1.55,0,2.81,1.26,2.81,2.811
		c0,1.539-1.26,2.8-2.81,2.8C396.18,310.28,394.92,309.02,394.92,307.48"/>
	
		<path clip-path="url(#SVGID_4_)" fill="none" stroke="#B497A1" stroke-width="0.71" stroke-linecap="round" stroke-linejoin="round" stroke-miterlimit="10" d="
		M394.92,307.48c0-1.551,1.26-2.811,2.8-2.811c1.55,0,2.81,1.26,2.81,2.811c0,1.539-1.26,2.8-2.81,2.8
		C396.18,310.28,394.92,309.02,394.92,307.48"/>
	<path clip-path="url(#SVGID_4_)" fill="#8F93BD" d="M399.64,399.82c0-1.54,1.26-2.811,2.8-2.811c1.55,0,2.81,1.271,2.81,2.811
		c0,1.55-1.26,2.81-2.81,2.81C400.9,402.63,399.64,401.37,399.64,399.82"/>
	
		<path clip-path="url(#SVGID_4_)" fill="none" stroke="#8F93BD" stroke-width="0.71" stroke-linecap="round" stroke-linejoin="round" stroke-miterlimit="10" d="
		M399.64,399.82c0-1.54,1.26-2.811,2.8-2.811c1.55,0,2.81,1.271,2.81,2.811c0,1.55-1.26,2.81-2.81,2.81
		C400.9,402.63,399.64,401.37,399.64,399.82"/>
	<path clip-path="url(#SVGID_4_)" fill="#BF9896" d="M404.36,272.85c0-1.55,1.26-2.81,2.8-2.81c1.55,0,2.81,1.26,2.81,2.81
		c0,1.54-1.26,2.8-2.81,2.8C405.62,275.65,404.36,274.39,404.36,272.85"/>
	
		<path clip-path="url(#SVGID_4_)" fill="none" stroke="#BF9896" stroke-width="0.71" stroke-linecap="round" stroke-linejoin="round" stroke-miterlimit="10" d="
		M404.36,272.85c0-1.55,1.26-2.81,2.8-2.81c1.55,0,2.81,1.26,2.81,2.81c0,1.54-1.26,2.8-2.81,2.8
		C405.62,275.65,404.36,274.39,404.36,272.85"/>
	<path clip-path="url(#SVGID_4_)" fill="#A796AC" d="M409.08,342.11c0-1.551,1.26-2.811,2.81-2.811c1.54,0,2.8,1.26,2.8,2.811
		c0,1.54-1.26,2.8-2.8,2.8C410.34,344.91,409.08,343.65,409.08,342.11"/>
	
		<path clip-path="url(#SVGID_4_)" fill="none" stroke="#A796AC" stroke-width="0.71" stroke-linecap="round" stroke-linejoin="round" stroke-miterlimit="10" d="
		M409.08,342.11c0-1.551,1.26-2.811,2.81-2.811c1.54,0,2.8,1.26,2.8,2.811c0,1.54-1.26,2.8-2.8,2.8
		C410.34,344.91,409.08,343.65,409.08,342.11"/>
	<path clip-path="url(#SVGID_4_)" fill="#BB989A" d="M413.8,284.39c0-1.55,1.26-2.81,2.81-2.81c1.54,0,2.8,1.26,2.8,2.81
		c0,1.54-1.26,2.81-2.8,2.81C415.06,287.2,413.8,285.93,413.8,284.39"/>
	
		<path clip-path="url(#SVGID_4_)" fill="none" stroke="#BB989A" stroke-width="0.71" stroke-linecap="round" stroke-linejoin="round" stroke-miterlimit="10" d="
		M413.8,284.39c0-1.55,1.26-2.81,2.81-2.81c1.54,0,2.8,1.26,2.8,2.81c0,1.54-1.26,2.81-2.8,2.81
		C415.06,287.2,413.8,285.93,413.8,284.39"/>
	<path clip-path="url(#SVGID_4_)" fill="#AC96A8" d="M418.52,330.56c0-1.54,1.26-2.81,2.81-2.81c1.54,0,2.8,1.27,2.8,2.81
		c0,1.551-1.26,2.811-2.8,2.811C419.78,333.37,418.52,332.11,418.52,330.56"/>
	
		<path clip-path="url(#SVGID_4_)" fill="none" stroke="#AC96A8" stroke-width="0.71" stroke-linecap="round" stroke-linejoin="round" stroke-miterlimit="10" d="
		M418.52,330.56c0-1.54,1.26-2.81,2.81-2.81c1.54,0,2.8,1.27,2.8,2.81c0,1.551-1.26,2.811-2.8,2.811
		C419.78,333.37,418.52,332.11,418.52,330.56"/>
	<path clip-path="url(#SVGID_4_)" fill="#A796AC" d="M423.24,342.11c0-1.551,1.26-2.811,2.81-2.811c1.54,0,2.811,1.26,2.811,2.811
		c0,1.54-1.271,2.8-2.811,2.8C424.5,344.91,423.24,343.65,423.24,342.11"/>
	
		<path clip-path="url(#SVGID_4_)" fill="none" stroke="#A796AC" stroke-width="0.71" stroke-linecap="round" stroke-linejoin="round" stroke-miterlimit="10" d="
		M423.24,342.11c0-1.551,1.26-2.811,2.81-2.811c1.54,0,2.811,1.26,2.811,2.811c0,1.54-1.271,2.8-2.811,2.8
		C424.5,344.91,423.24,343.65,423.24,342.11"/>
	<path clip-path="url(#SVGID_4_)" fill="#A796AC" d="M427.96,342.11c0-1.551,1.26-2.811,2.81-2.811c1.54,0,2.811,1.26,2.811,2.811
		c0,1.54-1.271,2.8-2.811,2.8C429.22,344.91,427.96,343.65,427.96,342.11"/>
	
		<path clip-path="url(#SVGID_4_)" fill="none" stroke="#A796AC" stroke-width="0.71" stroke-linecap="round" stroke-linejoin="round" stroke-miterlimit="10" d="
		M427.96,342.11c0-1.551,1.26-2.811,2.81-2.811c1.54,0,2.811,1.26,2.811,2.811c0,1.54-1.271,2.8-2.811,2.8
		C429.22,344.91,427.96,343.65,427.96,342.11"/>
	<path clip-path="url(#SVGID_4_)" fill="#B096A5" d="M432.68,319.02c0-1.55,1.261-2.81,2.811-2.81c1.54,0,2.81,1.26,2.81,2.81
		c0,1.54-1.27,2.811-2.81,2.811C433.94,321.83,432.68,320.56,432.68,319.02"/>
	
		<path clip-path="url(#SVGID_4_)" fill="none" stroke="#B096A5" stroke-width="0.71" stroke-linecap="round" stroke-linejoin="round" stroke-miterlimit="10" d="
		M432.68,319.02c0-1.55,1.261-2.81,2.811-2.81c1.54,0,2.81,1.26,2.81,2.81c0,1.54-1.27,2.811-2.81,2.811
		C433.94,321.83,432.68,320.56,432.68,319.02"/>
	<path clip-path="url(#SVGID_4_)" fill="#CA998C" d="M437.4,238.22c0-1.55,1.26-2.81,2.81-2.81c1.54,0,2.81,1.26,2.81,2.81
		c0,1.54-1.27,2.8-2.81,2.8C438.66,241.02,437.4,239.76,437.4,238.22"/>
	
		<path clip-path="url(#SVGID_4_)" fill="none" stroke="#CA998C" stroke-width="0.71" stroke-linecap="round" stroke-linejoin="round" stroke-miterlimit="10" d="
		M437.4,238.22c0-1.55,1.26-2.81,2.81-2.81c1.54,0,2.81,1.26,2.81,2.81c0,1.54-1.27,2.8-2.81,2.8
		C438.66,241.02,437.4,239.76,437.4,238.22"/>
	<path clip-path="url(#SVGID_4_)" fill="#AC96A8" d="M442.12,330.56c0-1.54,1.26-2.81,2.81-2.81c1.54,0,2.811,1.27,2.811,2.81
		c0,1.551-1.271,2.811-2.811,2.811C443.38,333.37,442.12,332.11,442.12,330.56"/>
	
		<path clip-path="url(#SVGID_4_)" fill="none" stroke="#AC96A8" stroke-width="0.71" stroke-linecap="round" stroke-linejoin="round" stroke-miterlimit="10" d="
		M442.12,330.56c0-1.54,1.26-2.81,2.81-2.81c1.54,0,2.811,1.27,2.811,2.81c0,1.551-1.271,2.811-2.811,2.811
		C443.38,333.37,442.12,332.11,442.12,330.56"/>
	<path clip-path="url(#SVGID_4_)" fill="#B497A1" d="M446.84,307.48c0-1.551,1.26-2.811,2.811-2.811c1.54,0,2.81,1.26,2.81,2.811
		c0,1.539-1.27,2.8-2.81,2.8C448.1,310.28,446.84,309.02,446.84,307.48"/>
	
		<path clip-path="url(#SVGID_4_)" fill="none" stroke="#B497A1" stroke-width="0.71" stroke-linecap="round" stroke-linejoin="round" stroke-miterlimit="10" d="
		M446.84,307.48c0-1.551,1.26-2.811,2.811-2.811c1.54,0,2.81,1.26,2.81,2.811c0,1.539-1.27,2.8-2.81,2.8
		C448.1,310.28,446.84,309.02,446.84,307.48"/>
	<path clip-path="url(#SVGID_4_)" fill="#BF9896" d="M451.56,272.85c0-1.55,1.261-2.81,2.811-2.81c1.54,0,2.81,1.26,2.81,2.81
		c0,1.54-1.27,2.8-2.81,2.8C452.82,275.65,451.56,274.39,451.56,272.85"/>
	
		<path clip-path="url(#SVGID_4_)" fill="none" stroke="#BF9896" stroke-width="0.71" stroke-linecap="round" stroke-linejoin="round" stroke-miterlimit="10" d="
		M451.56,272.85c0-1.55,1.261-2.81,2.811-2.81c1.54,0,2.81,1.26,2.81,2.81c0,1.54-1.27,2.8-2.81,2.8
		C452.82,275.65,451.56,274.39,451.56,272.85"/>
	<path clip-path="url(#SVGID_4_)" fill="#D19A85" d="M456.28,215.13c0-1.55,1.27-2.81,2.81-2.81s2.811,1.26,2.811,2.81
		c0,1.54-1.271,2.81-2.811,2.81S456.28,216.67,456.28,215.13"/>
	
		<path clip-path="url(#SVGID_4_)" fill="none" stroke="#D19A85" stroke-width="0.71" stroke-linecap="round" stroke-linejoin="round" stroke-miterlimit="10" d="
		M456.28,215.13c0-1.55,1.27-2.81,2.81-2.81s2.811,1.26,2.811,2.81c0,1.54-1.271,2.81-2.811,2.81S456.28,216.67,456.28,215.13"/>
	<path clip-path="url(#SVGID_4_)" fill="#C6998F" d="M461,249.76c0-1.55,1.27-2.81,2.81-2.81s2.811,1.26,2.811,2.81
		c0,1.54-1.271,2.81-2.811,2.81S461,251.3,461,249.76"/>
	
		<path clip-path="url(#SVGID_4_)" fill="none" stroke="#C6998F" stroke-width="0.71" stroke-linecap="round" stroke-linejoin="round" stroke-miterlimit="10" d="
		M461,249.76c0-1.55,1.27-2.81,2.81-2.81s2.811,1.26,2.811,2.81c0,1.54-1.271,2.81-2.811,2.81S461,251.3,461,249.76"/>
	<path clip-path="url(#SVGID_4_)" fill="#D79B7D" d="M465.72,192.04c0-1.54,1.271-2.81,2.811-2.81c1.55,0,2.81,1.27,2.81,2.81
		c0,1.55-1.26,2.81-2.81,2.81C466.99,194.85,465.72,193.59,465.72,192.04"/>
	
		<path clip-path="url(#SVGID_4_)" fill="none" stroke="#D79B7D" stroke-width="0.71" stroke-linecap="round" stroke-linejoin="round" stroke-miterlimit="10" d="
		M465.72,192.04c0-1.54,1.271-2.81,2.811-2.81c1.55,0,2.81,1.27,2.81,2.81c0,1.55-1.26,2.81-2.81,2.81
		C466.99,194.85,465.72,193.59,465.72,192.04"/>
	<path clip-path="url(#SVGID_4_)" fill="#C6998F" d="M470.44,249.76c0-1.55,1.27-2.81,2.81-2.81c1.55,0,2.81,1.26,2.81,2.81
		c0,1.54-1.26,2.81-2.81,2.81C471.71,252.57,470.44,251.3,470.44,249.76"/>
	
		<path clip-path="url(#SVGID_4_)" fill="none" stroke="#C6998F" stroke-width="0.71" stroke-linecap="round" stroke-linejoin="round" stroke-miterlimit="10" d="
		M470.44,249.76c0-1.55,1.27-2.81,2.81-2.81c1.55,0,2.81,1.26,2.81,2.81c0,1.54-1.26,2.81-2.81,2.81
		C471.71,252.57,470.44,251.3,470.44,249.76"/>
	<path clip-path="url(#SVGID_4_)" fill="#B8979E" d="M475.16,295.93c0-1.54,1.27-2.81,2.81-2.81c1.55,0,2.811,1.27,2.811,2.81
		c0,1.55-1.261,2.81-2.811,2.81C476.43,298.74,475.16,297.48,475.16,295.93"/>
	
		<path clip-path="url(#SVGID_4_)" fill="none" stroke="#B8979E" stroke-width="0.71" stroke-linecap="round" stroke-linejoin="round" stroke-miterlimit="10" d="
		M475.16,295.93c0-1.54,1.27-2.81,2.81-2.81c1.55,0,2.811,1.27,2.811,2.81c0,1.55-1.261,2.81-2.811,2.81
		C476.43,298.74,475.16,297.48,475.16,295.93"/>
	<path clip-path="url(#SVGID_4_)" fill="#C39993" d="M479.88,261.3c0-1.54,1.271-2.81,2.811-2.81c1.55,0,2.81,1.27,2.81,2.81
		c0,1.55-1.26,2.81-2.81,2.81C481.15,264.11,479.88,262.85,479.88,261.3"/>
	
		<path clip-path="url(#SVGID_4_)" fill="none" stroke="#C39993" stroke-width="0.71" stroke-linecap="round" stroke-linejoin="round" stroke-miterlimit="10" d="
		M479.88,261.3c0-1.54,1.271-2.81,2.811-2.81c1.55,0,2.81,1.27,2.81,2.81c0,1.55-1.26,2.81-2.81,2.81
		C481.15,264.11,479.88,262.85,479.88,261.3"/>
	<path clip-path="url(#SVGID_4_)" fill="#A796AC" d="M484.6,342.11c0-1.551,1.271-2.811,2.811-2.811c1.55,0,2.81,1.26,2.81,2.811
		c0,1.54-1.26,2.8-2.81,2.8C485.87,344.91,484.6,343.65,484.6,342.11"/>
	
		<path clip-path="url(#SVGID_4_)" fill="none" stroke="#A796AC" stroke-width="0.71" stroke-linecap="round" stroke-linejoin="round" stroke-miterlimit="10" d="
		M484.6,342.11c0-1.551,1.271-2.811,2.811-2.811c1.55,0,2.81,1.26,2.81,2.811c0,1.54-1.26,2.8-2.81,2.8
		C485.87,344.91,484.6,343.65,484.6,342.11"/>
	<path clip-path="url(#SVGID_4_)" fill="#CA998C" d="M489.32,238.22c0-1.55,1.27-2.81,2.81-2.81c1.55,0,2.811,1.26,2.811,2.81
		c0,1.54-1.261,2.8-2.811,2.8C490.59,241.02,489.32,239.76,489.32,238.22"/>
	
		<path clip-path="url(#SVGID_4_)" fill="none" stroke="#CA998C" stroke-width="0.71" stroke-linecap="round" stroke-linejoin="round" stroke-miterlimit="10" d="
		M489.32,238.22c0-1.55,1.27-2.81,2.81-2.81c1.55,0,2.811,1.26,2.811,2.81c0,1.54-1.261,2.8-2.811,2.8
		C490.59,241.02,489.32,239.76,489.32,238.22"/>
	<path clip-path="url(#SVGID_4_)" fill="#D19A85" d="M494.04,215.13c0-1.55,1.27-2.81,2.81-2.81c1.551,0,2.811,1.26,2.811,2.81
		c0,1.54-1.26,2.81-2.811,2.81C495.31,217.94,494.04,216.67,494.04,215.13"/>
	
		<path clip-path="url(#SVGID_4_)" fill="none" stroke="#D19A85" stroke-width="0.71" stroke-linecap="round" stroke-linejoin="round" stroke-miterlimit="10" d="
		M494.04,215.13c0-1.55,1.27-2.81,2.81-2.81c1.551,0,2.811,1.26,2.811,2.81c0,1.54-1.26,2.81-2.811,2.81
		C495.31,217.94,494.04,216.67,494.04,215.13"/>
	<path clip-path="url(#SVGID_4_)" fill="#CD9A88" d="M498.77,226.67c0-1.54,1.261-2.81,2.801-2.81c1.55,0,2.81,1.27,2.81,2.81
		c0,1.55-1.26,2.81-2.81,2.81C500.03,229.48,498.77,228.22,498.77,226.67"/>
	
		<path clip-path="url(#SVGID_4_)" fill="none" stroke="#CD9A88" stroke-width="0.71" stroke-linecap="round" stroke-linejoin="round" stroke-miterlimit="10" d="
		M498.77,226.67c0-1.54,1.261-2.81,2.801-2.81c1.55,0,2.81,1.27,2.81,2.81c0,1.55-1.26,2.81-2.81,2.81
		C500.03,229.48,498.77,228.22,498.77,226.67"/>
	<path clip-path="url(#SVGID_4_)" fill="#CD9A88" d="M503.49,226.67c0-1.54,1.26-2.81,2.8-2.81c1.55,0,2.81,1.27,2.81,2.81
		c0,1.55-1.26,2.81-2.81,2.81C504.75,229.48,503.49,228.22,503.49,226.67"/>
	
		<path clip-path="url(#SVGID_4_)" fill="none" stroke="#CD9A88" stroke-width="0.71" stroke-linecap="round" stroke-linejoin="round" stroke-miterlimit="10" d="
		M503.49,226.67c0-1.54,1.26-2.81,2.8-2.81c1.55,0,2.81,1.27,2.81,2.81c0,1.55-1.26,2.81-2.81,2.81
		C504.75,229.48,503.49,228.22,503.49,226.67"/>
	<path clip-path="url(#SVGID_4_)" fill="#BF9896" d="M508.21,272.85c0-1.55,1.26-2.81,2.8-2.81c1.55,0,2.811,1.26,2.811,2.81
		c0,1.54-1.261,2.8-2.811,2.8C509.47,275.65,508.21,274.39,508.21,272.85"/>
	
		<path clip-path="url(#SVGID_4_)" fill="none" stroke="#BF9896" stroke-width="0.71" stroke-linecap="round" stroke-linejoin="round" stroke-miterlimit="10" d="
		M508.21,272.85c0-1.55,1.26-2.81,2.8-2.81c1.55,0,2.811,1.26,2.811,2.81c0,1.54-1.261,2.8-2.811,2.8
		C509.47,275.65,508.21,274.39,508.21,272.85"/>
	<path clip-path="url(#SVGID_4_)" fill="#B8979E" d="M512.93,295.93c0-1.54,1.261-2.81,2.801-2.81c1.55,0,2.81,1.27,2.81,2.81
		c0,1.55-1.26,2.81-2.81,2.81C514.19,298.74,512.93,297.48,512.93,295.93"/>
	
		<path clip-path="url(#SVGID_4_)" fill="none" stroke="#B8979E" stroke-width="0.71" stroke-linecap="round" stroke-linejoin="round" stroke-miterlimit="10" d="
		M512.93,295.93c0-1.54,1.261-2.81,2.801-2.81c1.55,0,2.81,1.27,2.81,2.81c0,1.55-1.26,2.81-2.81,2.81
		C514.19,298.74,512.93,297.48,512.93,295.93"/>
	<path clip-path="url(#SVGID_4_)" fill="#D19A85" d="M517.65,215.13c0-1.55,1.26-2.81,2.81-2.81c1.54,0,2.8,1.26,2.8,2.81
		c0,1.54-1.26,2.81-2.8,2.81C518.91,217.94,517.65,216.67,517.65,215.13"/>
	
		<path clip-path="url(#SVGID_4_)" fill="none" stroke="#D19A85" stroke-width="0.71" stroke-linecap="round" stroke-linejoin="round" stroke-miterlimit="10" d="
		M517.65,215.13c0-1.55,1.26-2.81,2.81-2.81c1.54,0,2.8,1.26,2.8,2.81c0,1.54-1.26,2.81-2.8,2.81
		C518.91,217.94,517.65,216.67,517.65,215.13"/>
	<path clip-path="url(#SVGID_4_)" fill="#D19A85" d="M522.37,215.13c0-1.55,1.26-2.81,2.81-2.81c1.54,0,2.801,1.26,2.801,2.81
		c0,1.54-1.261,2.81-2.801,2.81C523.63,217.94,522.37,216.67,522.37,215.13"/>
	
		<path clip-path="url(#SVGID_4_)" fill="none" stroke="#D19A85" stroke-width="0.71" stroke-linecap="round" stroke-linejoin="round" stroke-miterlimit="10" d="
		M522.37,215.13c0-1.55,1.26-2.81,2.81-2.81c1.54,0,2.801,1.26,2.801,2.81c0,1.54-1.261,2.81-2.801,2.81
		C523.63,217.94,522.37,216.67,522.37,215.13"/>
	<path clip-path="url(#SVGID_4_)" fill="#BF9896" d="M527.09,272.85c0-1.55,1.26-2.81,2.811-2.81c1.54,0,2.8,1.26,2.8,2.81
		c0,1.54-1.26,2.8-2.8,2.8C528.35,275.65,527.09,274.39,527.09,272.85"/>
	
		<path clip-path="url(#SVGID_4_)" fill="none" stroke="#BF9896" stroke-width="0.71" stroke-linecap="round" stroke-linejoin="round" stroke-miterlimit="10" d="
		M527.09,272.85c0-1.55,1.26-2.81,2.811-2.81c1.54,0,2.8,1.26,2.8,2.81c0,1.54-1.26,2.8-2.8,2.8
		C528.35,275.65,527.09,274.39,527.09,272.85"/>
	<path clip-path="url(#SVGID_4_)" fill="#CD9A88" d="M531.81,226.67c0-1.54,1.261-2.81,2.811-2.81c1.54,0,2.81,1.27,2.81,2.81
		c0,1.55-1.27,2.81-2.81,2.81C533.07,229.48,531.81,228.22,531.81,226.67"/>
	
		<path clip-path="url(#SVGID_4_)" fill="none" stroke="#CD9A88" stroke-width="0.71" stroke-linecap="round" stroke-linejoin="round" stroke-miterlimit="10" d="
		M531.81,226.67c0-1.54,1.261-2.81,2.811-2.81c1.54,0,2.81,1.27,2.81,2.81c0,1.55-1.27,2.81-2.81,2.81
		C533.07,229.48,531.81,228.22,531.81,226.67"/>
	<path clip-path="url(#SVGID_4_)" fill="#B8979E" d="M536.53,295.93c0-1.54,1.26-2.81,2.81-2.81c1.54,0,2.811,1.27,2.811,2.81
		c0,1.55-1.271,2.81-2.811,2.81C537.79,298.74,536.53,297.48,536.53,295.93"/>
	
		<path clip-path="url(#SVGID_4_)" fill="none" stroke="#B8979E" stroke-width="0.71" stroke-linecap="round" stroke-linejoin="round" stroke-miterlimit="10" d="
		M536.53,295.93c0-1.54,1.26-2.81,2.81-2.81c1.54,0,2.811,1.27,2.811,2.81c0,1.55-1.271,2.81-2.811,2.81
		C537.79,298.74,536.53,297.48,536.53,295.93"/>
	<path clip-path="url(#SVGID_4_)" fill="#D49B81" d="M541.25,203.59c0-1.55,1.26-2.81,2.81-2.81c1.54,0,2.811,1.26,2.811,2.81
		c0,1.54-1.271,2.8-2.811,2.8C542.51,206.39,541.25,205.13,541.25,203.59"/>
	
		<path clip-path="url(#SVGID_4_)" fill="none" stroke="#D49B81" stroke-width="0.71" stroke-linecap="round" stroke-linejoin="round" stroke-miterlimit="10" d="
		M541.25,203.59c0-1.55,1.26-2.81,2.81-2.81c1.54,0,2.811,1.26,2.811,2.81c0,1.54-1.271,2.8-2.811,2.8
		C542.51,206.39,541.25,205.13,541.25,203.59"/>
	<path clip-path="url(#SVGID_4_)" fill="#DD9C76" d="M545.97,168.96c0-1.55,1.261-2.81,2.811-2.81c1.54,0,2.81,1.26,2.81,2.81
		c0,1.54-1.27,2.8-2.81,2.8C547.23,171.76,545.97,170.5,545.97,168.96"/>
	
		<path clip-path="url(#SVGID_4_)" fill="none" stroke="#DD9C76" stroke-width="0.71" stroke-linecap="round" stroke-linejoin="round" stroke-miterlimit="10" d="
		M545.97,168.96c0-1.55,1.261-2.81,2.811-2.81c1.54,0,2.81,1.26,2.81,2.81c0,1.54-1.27,2.8-2.81,2.8
		C547.23,171.76,545.97,170.5,545.97,168.96"/>
	<path clip-path="url(#SVGID_4_)" fill="#F4A056" d="M550.69,76.61c0-1.55,1.26-2.81,2.81-2.81c1.54,0,2.81,1.26,2.81,2.81
		c0,1.54-1.27,2.81-2.81,2.81C551.95,79.42,550.69,78.15,550.69,76.61"/>
	
		<path clip-path="url(#SVGID_4_)" fill="none" stroke="#F4A056" stroke-width="0.71" stroke-linecap="round" stroke-linejoin="round" stroke-miterlimit="10" d="
		M550.69,76.61c0-1.55,1.26-2.81,2.81-2.81c1.54,0,2.81,1.26,2.81,2.81c0,1.54-1.27,2.81-2.81,2.81
		C551.95,79.42,550.69,78.15,550.69,76.61"/>
	<path clip-path="url(#SVGID_4_)" fill="#C6998F" d="M555.41,249.76c0-1.55,1.26-2.81,2.81-2.81c1.54,0,2.811,1.26,2.811,2.81
		c0,1.54-1.271,2.81-2.811,2.81C556.67,252.57,555.41,251.3,555.41,249.76"/>
	
		<path clip-path="url(#SVGID_4_)" fill="none" stroke="#C6998F" stroke-width="0.71" stroke-linecap="round" stroke-linejoin="round" stroke-miterlimit="10" d="
		M555.41,249.76c0-1.55,1.26-2.81,2.81-2.81c1.54,0,2.811,1.26,2.811,2.81c0,1.54-1.271,2.81-2.811,2.81
		C556.67,252.57,555.41,251.3,555.41,249.76"/>
	<path clip-path="url(#SVGID_4_)" fill="#B8979E" d="M560.13,295.93c0-1.54,1.26-2.81,2.811-2.81c1.54,0,2.81,1.27,2.81,2.81
		c0,1.55-1.27,2.81-2.81,2.81C561.39,298.74,560.13,297.48,560.13,295.93"/>
	
		<path clip-path="url(#SVGID_4_)" fill="none" stroke="#B8979E" stroke-width="0.71" stroke-linecap="round" stroke-linejoin="round" stroke-miterlimit="10" d="
		M560.13,295.93c0-1.54,1.26-2.81,2.811-2.81c1.54,0,2.81,1.27,2.81,2.81c0,1.55-1.27,2.81-2.81,2.81
		C561.39,298.74,560.13,297.48,560.13,295.93"/>
	<path clip-path="url(#SVGID_4_)" fill="#DA9C79" d="M564.85,180.5c0-1.55,1.271-2.81,2.811-2.81s2.81,1.26,2.81,2.81
		c0,1.54-1.27,2.81-2.81,2.81S564.85,182.04,564.85,180.5"/>
	
		<path clip-path="url(#SVGID_4_)" fill="none" stroke="#DA9C79" stroke-width="0.71" stroke-linecap="round" stroke-linejoin="round" stroke-miterlimit="10" d="
		M564.85,180.5c0-1.55,1.271-2.81,2.811-2.81s2.81,1.26,2.81,2.81c0,1.54-1.27,2.81-2.81,2.81S564.85,182.04,564.85,180.5"/>
	<path clip-path="url(#SVGID_4_)" fill="#D19A85" d="M569.57,215.13c0-1.55,1.27-2.81,2.81-2.81s2.811,1.26,2.811,2.81
		c0,1.54-1.271,2.81-2.811,2.81S569.57,216.67,569.57,215.13"/>
	
		<path clip-path="url(#SVGID_4_)" fill="none" stroke="#D19A85" stroke-width="0.71" stroke-linecap="round" stroke-linejoin="round" stroke-miterlimit="10" d="
		M569.57,215.13c0-1.55,1.27-2.81,2.81-2.81s2.811,1.26,2.811,2.81c0,1.54-1.271,2.81-2.811,2.81S569.57,216.67,569.57,215.13"/>
	<path clip-path="url(#SVGID_4_)" fill="#B497A1" d="M574.29,307.48c0-1.551,1.27-2.811,2.81-2.811c1.551,0,2.811,1.26,2.811,2.811
		c0,1.539-1.26,2.8-2.811,2.8C575.56,310.28,574.29,309.02,574.29,307.48"/>
	
		<path clip-path="url(#SVGID_4_)" fill="none" stroke="#B497A1" stroke-width="0.71" stroke-linecap="round" stroke-linejoin="round" stroke-miterlimit="10" d="
		M574.29,307.48c0-1.551,1.27-2.811,2.81-2.811c1.551,0,2.811,1.26,2.811,2.811c0,1.539-1.26,2.8-2.811,2.8
		C575.56,310.28,574.29,309.02,574.29,307.48"/>
	<path clip-path="url(#SVGID_4_)" fill="#D19A85" d="M579.01,215.13c0-1.55,1.271-2.81,2.811-2.81c1.55,0,2.81,1.26,2.81,2.81
		c0,1.54-1.26,2.81-2.81,2.81C580.28,217.94,579.01,216.67,579.01,215.13"/>
	
		<path clip-path="url(#SVGID_4_)" fill="none" stroke="#D19A85" stroke-width="0.71" stroke-linecap="round" stroke-linejoin="round" stroke-miterlimit="10" d="
		M579.01,215.13c0-1.55,1.271-2.81,2.811-2.81c1.55,0,2.81,1.26,2.81,2.81c0,1.54-1.26,2.81-2.81,2.81
		C580.28,217.94,579.01,216.67,579.01,215.13"/>
	<path clip-path="url(#SVGID_4_)" fill="#BF9896" d="M583.73,272.85c0-1.55,1.27-2.81,2.81-2.81c1.55,0,2.81,1.26,2.81,2.81
		c0,1.54-1.26,2.8-2.81,2.8C585,275.65,583.73,274.39,583.73,272.85"/>
	
		<path clip-path="url(#SVGID_4_)" fill="none" stroke="#BF9896" stroke-width="0.71" stroke-linecap="round" stroke-linejoin="round" stroke-miterlimit="10" d="
		M583.73,272.85c0-1.55,1.27-2.81,2.81-2.81c1.55,0,2.81,1.26,2.81,2.81c0,1.54-1.26,2.8-2.81,2.8
		C585,275.65,583.73,274.39,583.73,272.85"/>
	<path clip-path="url(#SVGID_4_)" fill="#E39D6E" d="M588.45,145.87c0-1.55,1.27-2.81,2.81-2.81c1.55,0,2.811,1.26,2.811,2.81
		c0,1.54-1.261,2.81-2.811,2.81C589.72,148.68,588.45,147.41,588.45,145.87"/>
	
		<path clip-path="url(#SVGID_4_)" fill="none" stroke="#E39D6E" stroke-width="0.71" stroke-linecap="round" stroke-linejoin="round" stroke-miterlimit="10" d="
		M588.45,145.87c0-1.55,1.27-2.81,2.81-2.81c1.55,0,2.811,1.26,2.811,2.81c0,1.54-1.261,2.81-2.811,2.81
		C589.72,148.68,588.45,147.41,588.45,145.87"/>
	<path clip-path="url(#SVGID_4_)" fill="#C6998F" d="M593.17,249.76c0-1.55,1.271-2.81,2.811-2.81c1.55,0,2.81,1.26,2.81,2.81
		c0,1.54-1.26,2.81-2.81,2.81C594.44,252.57,593.17,251.3,593.17,249.76"/>
	
		<path clip-path="url(#SVGID_4_)" fill="none" stroke="#C6998F" stroke-width="0.71" stroke-linecap="round" stroke-linejoin="round" stroke-miterlimit="10" d="
		M593.17,249.76c0-1.55,1.271-2.81,2.811-2.81c1.55,0,2.81,1.26,2.81,2.81c0,1.54-1.26,2.81-2.81,2.81
		C594.44,252.57,593.17,251.3,593.17,249.76"/>
	<path clip-path="url(#SVGID_4_)" fill="#E69E6A" d="M597.89,134.33c0-1.55,1.271-2.81,2.811-2.81c1.55,0,2.81,1.26,2.81,2.81
		c0,1.54-1.26,2.8-2.81,2.8C599.16,137.13,597.89,135.87,597.89,134.33"/>
	
		<path clip-path="url(#SVGID_4_)" fill="none" stroke="#E69E6A" stroke-width="0.71" stroke-linecap="round" stroke-linejoin="round" stroke-miterlimit="10" d="
		M597.89,134.33c0-1.55,1.271-2.81,2.811-2.81c1.55,0,2.81,1.26,2.81,2.81c0,1.54-1.26,2.8-2.81,2.8
		C599.16,137.13,597.89,135.87,597.89,134.33"/>
	<path clip-path="url(#SVGID_4_)" fill="#F7A152" d="M602.61,65.07c0-1.55,1.27-2.81,2.81-2.81c1.55,0,2.811,1.26,2.811,2.81
		c0,1.54-1.261,2.8-2.811,2.8C603.88,67.87,602.61,66.61,602.61,65.07"/>
	
		<path clip-path="url(#SVGID_4_)" fill="none" stroke="#F7A152" stroke-width="0.71" stroke-linecap="round" stroke-linejoin="round" stroke-miterlimit="10" d="
		M602.61,65.07c0-1.55,1.27-2.81,2.81-2.81c1.55,0,2.811,1.26,2.811,2.81c0,1.54-1.261,2.8-2.811,2.8
		C603.88,67.87,602.61,66.61,602.61,65.07"/>
	<path clip-path="url(#SVGID_4_)" fill="#E69E6A" d="M607.34,134.33c0-1.55,1.26-2.81,2.8-2.81c1.551,0,2.811,1.26,2.811,2.81
		c0,1.54-1.26,2.8-2.811,2.8C608.6,137.13,607.34,135.87,607.34,134.33"/>
	
		<path clip-path="url(#SVGID_4_)" fill="none" stroke="#E69E6A" stroke-width="0.71" stroke-linecap="round" stroke-linejoin="round" stroke-miterlimit="10" d="
		M607.34,134.33c0-1.55,1.26-2.81,2.8-2.81c1.551,0,2.811,1.26,2.811,2.81c0,1.54-1.26,2.8-2.811,2.8
		C608.6,137.13,607.34,135.87,607.34,134.33"/>
	<path clip-path="url(#SVGID_4_)" fill="#DA9C79" d="M612.06,180.5c0-1.55,1.261-2.81,2.801-2.81c1.55,0,2.81,1.26,2.81,2.81
		c0,1.54-1.26,2.81-2.81,2.81C613.32,183.31,612.06,182.04,612.06,180.5"/>
	
		<path clip-path="url(#SVGID_4_)" fill="none" stroke="#DA9C79" stroke-width="0.71" stroke-linecap="round" stroke-linejoin="round" stroke-miterlimit="10" d="
		M612.06,180.5c0-1.55,1.261-2.81,2.801-2.81c1.55,0,2.81,1.26,2.81,2.81c0,1.54-1.26,2.81-2.81,2.81
		C613.32,183.31,612.06,182.04,612.06,180.5"/>
	<path clip-path="url(#SVGID_4_)" fill="#CA998C" d="M616.78,238.22c0-1.55,1.26-2.81,2.8-2.81c1.55,0,2.81,1.26,2.81,2.81
		c0,1.54-1.26,2.8-2.81,2.8C618.04,241.02,616.78,239.76,616.78,238.22"/>
	
		<path clip-path="url(#SVGID_4_)" fill="none" stroke="#CA998C" stroke-width="0.71" stroke-linecap="round" stroke-linejoin="round" stroke-miterlimit="10" d="
		M616.78,238.22c0-1.55,1.26-2.81,2.8-2.81c1.55,0,2.81,1.26,2.81,2.81c0,1.54-1.26,2.8-2.81,2.8
		C618.04,241.02,616.78,239.76,616.78,238.22"/>
	<path clip-path="url(#SVGID_4_)" fill="#F4A056" d="M621.5,76.61c0-1.55,1.26-2.81,2.8-2.81c1.55,0,2.811,1.26,2.811,2.81
		c0,1.54-1.261,2.81-2.811,2.81C622.76,79.42,621.5,78.15,621.5,76.61"/>
	
		<path clip-path="url(#SVGID_4_)" fill="none" stroke="#F4A056" stroke-width="0.71" stroke-linecap="round" stroke-linejoin="round" stroke-miterlimit="10" d="
		M621.5,76.61c0-1.55,1.26-2.81,2.8-2.81c1.55,0,2.811,1.26,2.811,2.81c0,1.54-1.261,2.81-2.811,2.81
		C622.76,79.42,621.5,78.15,621.5,76.61"/>
	<path clip-path="url(#SVGID_4_)" fill="#E39D6E" d="M626.22,145.87c0-1.55,1.261-2.81,2.811-2.81c1.54,0,2.8,1.26,2.8,2.81
		c0,1.54-1.26,2.81-2.8,2.81C627.48,148.68,626.22,147.41,626.22,145.87"/>
	
		<path clip-path="url(#SVGID_4_)" fill="none" stroke="#E39D6E" stroke-width="0.71" stroke-linecap="round" stroke-linejoin="round" stroke-miterlimit="10" d="
		M626.22,145.87c0-1.55,1.261-2.81,2.811-2.81c1.54,0,2.8,1.26,2.8,2.81c0,1.54-1.26,2.81-2.8,2.81
		C627.48,148.68,626.22,147.41,626.22,145.87"/>
	<path clip-path="url(#SVGID_4_)" fill="#D49B81" d="M630.94,203.59c0-1.55,1.26-2.81,2.81-2.81c1.54,0,2.8,1.26,2.8,2.81
		c0,1.54-1.26,2.8-2.8,2.8C632.2,206.39,630.94,205.13,630.94,203.59"/>
	
		<path clip-path="url(#SVGID_4_)" fill="none" stroke="#D49B81" stroke-width="0.71" stroke-linecap="round" stroke-linejoin="round" stroke-miterlimit="10" d="
		M630.94,203.59c0-1.55,1.26-2.81,2.81-2.81c1.54,0,2.8,1.26,2.8,2.81c0,1.54-1.26,2.8-2.8,2.8
		C632.2,206.39,630.94,205.13,630.94,203.59"/>
	<path clip-path="url(#SVGID_4_)" fill="#EF9F5E" d="M635.66,99.7c0-1.55,1.26-2.81,2.81-2.81c1.54,0,2.8,1.26,2.8,2.81
		c0,1.54-1.26,2.8-2.8,2.8C636.92,102.5,635.66,101.24,635.66,99.7"/>
	
		<path clip-path="url(#SVGID_4_)" fill="none" stroke="#EF9F5E" stroke-width="0.71" stroke-linecap="round" stroke-linejoin="round" stroke-miterlimit="10" d="
		M635.66,99.7c0-1.55,1.26-2.81,2.81-2.81c1.54,0,2.8,1.26,2.8,2.81c0,1.54-1.26,2.8-2.8,2.8
		C636.92,102.5,635.66,101.24,635.66,99.7"/>
	<path clip-path="url(#SVGID_4_)" fill="#EF9F5E" d="M640.38,99.7c0-1.55,1.26-2.81,2.811-2.81c1.54,0,2.81,1.26,2.81,2.81
		c0,1.54-1.27,2.8-2.81,2.8C641.64,102.5,640.38,101.24,640.38,99.7"/>
	
		<path clip-path="url(#SVGID_4_)" fill="none" stroke="#EF9F5E" stroke-width="0.71" stroke-linecap="round" stroke-linejoin="round" stroke-miterlimit="10" d="
		M640.38,99.7c0-1.55,1.26-2.81,2.811-2.81c1.54,0,2.81,1.26,2.81,2.81c0,1.54-1.27,2.8-2.81,2.8
		C641.64,102.5,640.38,101.24,640.38,99.7"/>
	<path clip-path="url(#SVGID_4_)" fill="#F7A152" d="M645.1,65.07c0-1.55,1.261-2.81,2.811-2.81c1.54,0,2.81,1.26,2.81,2.81
		c0,1.54-1.27,2.8-2.81,2.8C646.36,67.87,645.1,66.61,645.1,65.07"/>
	
		<path clip-path="url(#SVGID_4_)" fill="none" stroke="#F7A152" stroke-width="0.71" stroke-linecap="round" stroke-linejoin="round" stroke-miterlimit="10" d="
		M645.1,65.07c0-1.55,1.261-2.81,2.811-2.81c1.54,0,2.81,1.26,2.81,2.81c0,1.54-1.27,2.8-2.81,2.8
		C646.36,67.87,645.1,66.61,645.1,65.07"/>
	<path clip-path="url(#SVGID_4_)" fill="#F4A056" d="M649.82,76.61c0-1.55,1.26-2.81,2.81-2.81c1.54,0,2.811,1.26,2.811,2.81
		c0,1.54-1.271,2.81-2.811,2.81C651.08,79.42,649.82,78.15,649.82,76.61"/>
	
		<path clip-path="url(#SVGID_4_)" fill="none" stroke="#F4A056" stroke-width="0.71" stroke-linecap="round" stroke-linejoin="round" stroke-miterlimit="10" d="
		M649.82,76.61c0-1.55,1.26-2.81,2.81-2.81c1.54,0,2.811,1.26,2.811,2.81c0,1.54-1.271,2.81-2.811,2.81
		C651.08,79.42,649.82,78.15,649.82,76.61"/>
	<path clip-path="url(#SVGID_4_)" fill="#E99E66" d="M654.54,122.78c0-1.54,1.26-2.81,2.81-2.81c1.54,0,2.811,1.27,2.811,2.81
		c0,1.55-1.271,2.81-2.811,2.81C655.8,125.59,654.54,124.33,654.54,122.78"/>
	
		<path clip-path="url(#SVGID_4_)" fill="none" stroke="#E99E66" stroke-width="0.71" stroke-linecap="round" stroke-linejoin="round" stroke-miterlimit="10" d="
		M654.54,122.78c0-1.54,1.26-2.81,2.81-2.81c1.54,0,2.811,1.27,2.811,2.81c0,1.55-1.271,2.81-2.811,2.81
		C655.8,125.59,654.54,124.33,654.54,122.78"/>
	<path clip-path="url(#SVGID_4_)" fill="#EF9F5E" d="M659.26,99.7c0-1.55,1.26-2.81,2.811-2.81c1.54,0,2.81,1.26,2.81,2.81
		c0,1.54-1.27,2.8-2.81,2.8C660.52,102.5,659.26,101.24,659.26,99.7"/>
	
		<path clip-path="url(#SVGID_4_)" fill="none" stroke="#EF9F5E" stroke-width="0.71" stroke-linecap="round" stroke-linejoin="round" stroke-miterlimit="10" d="
		M659.26,99.7c0-1.55,1.26-2.81,2.811-2.81c1.54,0,2.81,1.26,2.81,2.81c0,1.54-1.27,2.8-2.81,2.8
		C660.52,102.5,659.26,101.24,659.26,99.7"/>
	<path clip-path="url(#SVGID_4_)" fill="#DA9C79" d="M663.98,180.5c0-1.55,1.26-2.81,2.81-2.81c1.54,0,2.81,1.26,2.81,2.81
		c0,1.54-1.27,2.81-2.81,2.81C665.24,183.31,663.98,182.04,663.98,180.5"/>
	
		<path clip-path="url(#SVGID_4_)" fill="none" stroke="#DA9C79" stroke-width="0.71" stroke-linecap="round" stroke-linejoin="round" stroke-miterlimit="10" d="
		M663.98,180.5c0-1.55,1.26-2.81,2.81-2.81c1.54,0,2.81,1.26,2.81,2.81c0,1.54-1.27,2.81-2.81,2.81
		C665.24,183.31,663.98,182.04,663.98,180.5"/>
	<path clip-path="url(#SVGID_4_)" fill="#FFA244" d="M668.7,30.43c0-1.54,1.26-2.8,2.81-2.8c1.54,0,2.811,1.26,2.811,2.8
		c0,1.55-1.271,2.81-2.811,2.81C669.96,33.24,668.7,31.98,668.7,30.43"/>
	
		<path clip-path="url(#SVGID_4_)" fill="none" stroke="#FFA244" stroke-width="0.71" stroke-linecap="round" stroke-linejoin="round" stroke-miterlimit="10" d="
		M668.7,30.43c0-1.54,1.26-2.8,2.81-2.8c1.54,0,2.811,1.26,2.811,2.8c0,1.55-1.271,2.81-2.811,2.81
		C669.96,33.24,668.7,31.98,668.7,30.43"/>
	<path clip-path="url(#SVGID_4_)" fill="#E09D72" d="M673.42,157.41c0-1.54,1.271-2.81,2.811-2.81c1.539,0,2.81,1.27,2.81,2.81
		c0,1.55-1.271,2.81-2.81,2.81C674.69,160.22,673.42,158.96,673.42,157.41"/>
	
		<path clip-path="url(#SVGID_4_)" fill="none" stroke="#E09D72" stroke-width="0.71" stroke-linecap="round" stroke-linejoin="round" stroke-miterlimit="10" d="
		M673.42,157.41c0-1.54,1.271-2.81,2.811-2.81c1.539,0,2.81,1.27,2.81,2.81c0,1.55-1.271,2.81-2.81,2.81
		C674.69,160.22,673.42,158.96,673.42,157.41"/>
	<path clip-path="url(#SVGID_4_)" fill="#E69E6A" d="M678.14,134.33c0-1.55,1.271-2.81,2.811-2.81s2.81,1.26,2.81,2.81
		c0,1.54-1.27,2.8-2.81,2.8S678.14,135.87,678.14,134.33"/>
	
		<path clip-path="url(#SVGID_4_)" fill="none" stroke="#E69E6A" stroke-width="0.71" stroke-linecap="round" stroke-linejoin="round" stroke-miterlimit="10" d="
		M678.14,134.33c0-1.55,1.271-2.81,2.811-2.81s2.81,1.26,2.81,2.81c0,1.54-1.27,2.8-2.81,2.8S678.14,135.87,678.14,134.33"/>
	<path clip-path="url(#SVGID_4_)" fill="#F7A152" d="M682.86,65.07c0-1.55,1.27-2.81,2.81-2.81c1.55,0,2.811,1.26,2.811,2.81
		c0,1.54-1.261,2.8-2.811,2.8C684.13,67.87,682.86,66.61,682.86,65.07"/>
	
		<path clip-path="url(#SVGID_4_)" fill="none" stroke="#F7A152" stroke-width="0.71" stroke-linecap="round" stroke-linejoin="round" stroke-miterlimit="10" d="
		M682.86,65.07c0-1.55,1.27-2.81,2.81-2.81c1.55,0,2.811,1.26,2.811,2.81c0,1.54-1.261,2.8-2.811,2.8
		C684.13,67.87,682.86,66.61,682.86,65.07"/>
	<path clip-path="url(#SVGID_4_)" fill="#E69E6A" d="M687.58,134.33c0-1.55,1.27-2.81,2.81-2.81c1.551,0,2.811,1.26,2.811,2.81
		c0,1.54-1.26,2.8-2.811,2.8C688.85,137.13,687.58,135.87,687.58,134.33"/>
	
		<path clip-path="url(#SVGID_4_)" fill="none" stroke="#E69E6A" stroke-width="0.71" stroke-linecap="round" stroke-linejoin="round" stroke-miterlimit="10" d="
		M687.58,134.33c0-1.55,1.27-2.81,2.81-2.81c1.551,0,2.811,1.26,2.811,2.81c0,1.54-1.26,2.8-2.811,2.8
		C688.85,137.13,687.58,135.87,687.58,134.33"/>
	<path clip-path="url(#SVGID_4_)" fill="#EF9F5E" d="M692.3,99.7c0-1.55,1.271-2.81,2.811-2.81c1.55,0,2.81,1.26,2.81,2.81
		c0,1.54-1.26,2.8-2.81,2.8C693.57,102.5,692.3,101.24,692.3,99.7"/>
	
		<path clip-path="url(#SVGID_4_)" fill="none" stroke="#EF9F5E" stroke-width="0.71" stroke-linecap="round" stroke-linejoin="round" stroke-miterlimit="10" d="
		M692.3,99.7c0-1.55,1.271-2.81,2.811-2.81c1.55,0,2.81,1.26,2.81,2.81c0,1.54-1.26,2.8-2.81,2.8
		C693.57,102.5,692.3,101.24,692.3,99.7"/>
	<path clip-path="url(#SVGID_4_)" fill="#F4A056" d="M697.02,76.61c0-1.55,1.271-2.81,2.811-2.81c1.55,0,2.81,1.26,2.81,2.81
		c0,1.54-1.26,2.81-2.81,2.81C698.29,79.42,697.02,78.15,697.02,76.61"/>
	
		<path clip-path="url(#SVGID_4_)" fill="none" stroke="#F4A056" stroke-width="0.71" stroke-linecap="round" stroke-linejoin="round" stroke-miterlimit="10" d="
		M697.02,76.61c0-1.55,1.271-2.81,2.811-2.81c1.55,0,2.81,1.26,2.81,2.81c0,1.54-1.26,2.81-2.81,2.81
		C698.29,79.42,697.02,78.15,697.02,76.61"/>
	<path clip-path="url(#SVGID_4_)" fill="#E99E66" d="M701.74,122.78c0-1.54,1.27-2.81,2.81-2.81c1.55,0,2.811,1.27,2.811,2.81
		c0,1.55-1.261,2.81-2.811,2.81C703.01,125.59,701.74,124.33,701.74,122.78"/>
	
		<path clip-path="url(#SVGID_4_)" fill="none" stroke="#E99E66" stroke-width="0.71" stroke-linecap="round" stroke-linejoin="round" stroke-miterlimit="10" d="
		M701.74,122.78c0-1.54,1.27-2.81,2.81-2.81c1.55,0,2.811,1.27,2.811,2.81c0,1.55-1.261,2.81-2.811,2.81
		C703.01,125.59,701.74,124.33,701.74,122.78"/>
	<path clip-path="url(#SVGID_4_)" fill="#E39D6E" d="M706.46,145.87c0-1.55,1.271-2.81,2.81-2.81c1.551,0,2.811,1.26,2.811,2.81
		c0,1.54-1.26,2.81-2.811,2.81C707.73,148.68,706.46,147.41,706.46,145.87"/>
	
		<path clip-path="url(#SVGID_4_)" fill="none" stroke="#E39D6E" stroke-width="0.71" stroke-linecap="round" stroke-linejoin="round" stroke-miterlimit="10" d="
		M706.46,145.87c0-1.55,1.271-2.81,2.81-2.81c1.551,0,2.811,1.26,2.811,2.81c0,1.54-1.26,2.81-2.811,2.81
		C707.73,148.68,706.46,147.41,706.46,145.87"/>
	<path clip-path="url(#SVGID_4_)" fill="#FAA14D" d="M711.18,53.52c0-1.54,1.271-2.81,2.811-2.81c1.55,0,2.81,1.27,2.81,2.81
		c0,1.55-1.26,2.81-2.81,2.81C712.45,56.33,711.18,55.07,711.18,53.52"/>
	
		<path clip-path="url(#SVGID_4_)" fill="none" stroke="#FAA14D" stroke-width="0.71" stroke-linecap="round" stroke-linejoin="round" stroke-miterlimit="10" d="
		M711.18,53.52c0-1.54,1.271-2.81,2.811-2.81c1.55,0,2.81,1.27,2.81,2.81c0,1.55-1.26,2.81-2.81,2.81
		C712.45,56.33,711.18,55.07,711.18,53.52"/>
	<path clip-path="url(#SVGID_4_)" fill="#EC9F62" d="M715.91,111.24c0-1.55,1.26-2.81,2.8-2.81c1.55,0,2.81,1.26,2.81,2.81
		c0,1.54-1.26,2.81-2.81,2.81C717.17,114.05,715.91,112.78,715.91,111.24"/>
	
		<path clip-path="url(#SVGID_4_)" fill="none" stroke="#EC9F62" stroke-width="0.71" stroke-linecap="round" stroke-linejoin="round" stroke-miterlimit="10" d="
		M715.91,111.24c0-1.55,1.26-2.81,2.8-2.81c1.55,0,2.81,1.26,2.81,2.81c0,1.54-1.26,2.81-2.81,2.81
		C717.17,114.05,715.91,112.78,715.91,111.24"/>
	<path clip-path="url(#SVGID_4_)" fill="#E69E6A" d="M720.63,134.33c0-1.55,1.26-2.81,2.8-2.81c1.551,0,2.811,1.26,2.811,2.81
		c0,1.54-1.26,2.8-2.811,2.8C721.89,137.13,720.63,135.87,720.63,134.33"/>
	
		<path clip-path="url(#SVGID_4_)" fill="none" stroke="#E69E6A" stroke-width="0.71" stroke-linecap="round" stroke-linejoin="round" stroke-miterlimit="10" d="
		M720.63,134.33c0-1.55,1.26-2.81,2.8-2.81c1.551,0,2.811,1.26,2.811,2.81c0,1.54-1.26,2.8-2.811,2.8
		C721.89,137.13,720.63,135.87,720.63,134.33"/>
	<path clip-path="url(#SVGID_4_)" fill="#E69E6A" d="M725.35,134.33c0-1.55,1.261-2.81,2.801-2.81c1.55,0,2.81,1.26,2.81,2.81
		c0,1.54-1.26,2.8-2.81,2.8C726.61,137.13,725.35,135.87,725.35,134.33"/>
	
		<path clip-path="url(#SVGID_4_)" fill="none" stroke="#E69E6A" stroke-width="0.71" stroke-linecap="round" stroke-linejoin="round" stroke-miterlimit="10" d="
		M725.35,134.33c0-1.55,1.261-2.81,2.801-2.81c1.55,0,2.81,1.26,2.81,2.81c0,1.54-1.26,2.8-2.81,2.8
		C726.61,137.13,725.35,135.87,725.35,134.33"/>
	<path clip-path="url(#SVGID_4_)" fill="#D49B81" d="M730.07,203.59c0-1.55,1.26-2.81,2.8-2.81c1.55,0,2.81,1.26,2.81,2.81
		c0,1.54-1.26,2.8-2.81,2.8C731.33,206.39,730.07,205.13,730.07,203.59"/>
	
		<path clip-path="url(#SVGID_4_)" fill="none" stroke="#D49B81" stroke-width="0.71" stroke-linecap="round" stroke-linejoin="round" stroke-miterlimit="10" d="
		M730.07,203.59c0-1.55,1.26-2.81,2.8-2.81c1.55,0,2.81,1.26,2.81,2.81c0,1.54-1.26,2.8-2.81,2.8
		C731.33,206.39,730.07,205.13,730.07,203.59"/>
	<path clip-path="url(#SVGID_4_)" fill="#F2A05A" d="M734.79,88.15c0-1.54,1.26-2.81,2.81-2.81c1.54,0,2.801,1.27,2.801,2.81
		c0,1.55-1.261,2.81-2.801,2.81C736.05,90.96,734.79,89.7,734.79,88.15"/>
	
		<path clip-path="url(#SVGID_4_)" fill="none" stroke="#F2A05A" stroke-width="0.71" stroke-linecap="round" stroke-linejoin="round" stroke-miterlimit="10" d="
		M734.79,88.15c0-1.54,1.26-2.81,2.81-2.81c1.54,0,2.801,1.27,2.801,2.81c0,1.55-1.261,2.81-2.801,2.81
		C736.05,90.96,734.79,89.7,734.79,88.15"/>
	<path clip-path="url(#SVGID_4_)" fill="#E99E66" d="M739.51,122.78c0-1.54,1.26-2.81,2.811-2.81c1.54,0,2.8,1.27,2.8,2.81
		c0,1.55-1.26,2.81-2.8,2.81C740.77,125.59,739.51,124.33,739.51,122.78"/>
	
		<path clip-path="url(#SVGID_4_)" fill="none" stroke="#E99E66" stroke-width="0.71" stroke-linecap="round" stroke-linejoin="round" stroke-miterlimit="10" d="
		M739.51,122.78c0-1.54,1.26-2.81,2.811-2.81c1.54,0,2.8,1.27,2.8,2.81c0,1.55-1.26,2.81-2.8,2.81
		C740.77,125.59,739.51,124.33,739.51,122.78"/>
	<path clip-path="url(#SVGID_4_)" fill="#E99E66" d="M744.23,122.78c0-1.54,1.26-2.81,2.81-2.81c1.54,0,2.8,1.27,2.8,2.81
		c0,1.55-1.26,2.81-2.8,2.81C745.49,125.59,744.23,124.33,744.23,122.78"/>
	
		<path clip-path="url(#SVGID_4_)" fill="none" stroke="#E99E66" stroke-width="0.71" stroke-linecap="round" stroke-linejoin="round" stroke-miterlimit="10" d="
		M744.23,122.78c0-1.54,1.26-2.81,2.81-2.81c1.54,0,2.8,1.27,2.8,2.81c0,1.55-1.26,2.81-2.8,2.81
		C745.49,125.59,744.23,124.33,744.23,122.78"/>
</g>
<text transform="matrix(1 0 0 1 18.3701 530.0303)" fill="#4D4D4D" font-family="'ArialMT'" font-size="9">13</text>
<text transform="matrix(1 0 0 1 18.3701 414.5996)" fill="#4D4D4D" font-family="'ArialMT'" font-size="9">14</text>
<text transform="matrix(1 0 0 1 18.3701 299.1602)" fill="#4D4D4D" font-family="'ArialMT'" font-size="9">15</text>
<text transform="matrix(1 0 0 1 18.3701 183.73)" fill="#4D4D4D" font-family="'ArialMT'" font-size="9">16</text>
<text transform="matrix(1 0 0 1 18.3701 68.2998)" fill="#4D4D4D" font-family="'ArialMT'" font-size="9">17</text>
<text transform="matrix(1 0 0 1 76.1699 575.1299)" fill="#4D4D4D" font-family="'ArialMT'" font-size="9">1880</text>
<text transform="matrix(1 0 0 1 264.98 575.1299)" fill="#4D4D4D" font-family="'ArialMT'" font-size="9">1920</text>
<text transform="matrix(1 0 0 1 453.7998 575.1299)" fill="#4D4D4D" font-family="'ArialMT'" font-size="9">1960</text>
<text transform="matrix(1 0 0 1 642.6201 575.1299)" fill="#4D4D4D" font-family="'ArialMT'" font-size="9">2000</text>
<text transform="matrix(-6.123234e-017 -1 1 -6.123234e-017 13.3799 326.5205)"><tspan x="0" y="0" font-family="'ArialMT'" font-size="11" letter-spacing="-1">T</tspan><tspan x="5.41" y="0" font-family="'ArialMT'" font-size="11">empe</tspan><tspan x="32.926" y="0" font-family="'ArialMT'" font-size="11">r</tspan><tspan x="36.479" y="0" font-family="'ArialMT'" font-size="11">ature (C)</tspan></text>
<line fill="none" stroke="#FFFFFF" stroke-width="0.38" stroke-linejoin="round" stroke-miterlimit="10" x1="797.46" y1="333.85" x2="800.92" y2="333.85"/>
<line fill="none" stroke="#FFFFFF" stroke-width="0.38" stroke-linejoin="round" stroke-miterlimit="10" x1="797.46" y1="314.28" x2="800.92" y2="314.28"/>
<line fill="none" stroke="#FFFFFF" stroke-width="0.38" stroke-linejoin="round" stroke-miterlimit="10" x1="797.46" y1="294.71" x2="800.92" y2="294.71"/>
<line fill="none" stroke="#FFFFFF" stroke-width="0.38" stroke-linejoin="round" stroke-miterlimit="10" x1="797.46" y1="275.14" x2="800.92" y2="275.14"/>
<line fill="none" stroke="#FFFFFF" stroke-width="0.38" stroke-linejoin="round" stroke-miterlimit="10" x1="797.46" y1="255.57" x2="800.92" y2="255.57"/>
<line fill="none" stroke="#FFFFFF" stroke-width="0.38" stroke-linejoin="round" stroke-miterlimit="10" x1="811.29" y1="333.85" x2="814.74" y2="333.85"/>
<line fill="none" stroke="#FFFFFF" stroke-width="0.38" stroke-linejoin="round" stroke-miterlimit="10" x1="811.29" y1="314.28" x2="814.74" y2="314.28"/>
<line fill="none" stroke="#FFFFFF" stroke-width="0.38" stroke-linejoin="round" stroke-miterlimit="10" x1="811.29" y1="294.71" x2="814.74" y2="294.71"/>
<line fill="none" stroke="#FFFFFF" stroke-width="0.38" stroke-linejoin="round" stroke-miterlimit="10" x1="811.29" y1="275.14" x2="814.74" y2="275.14"/>
<line fill="none" stroke="#FFFFFF" stroke-width="0.38" stroke-linejoin="round" stroke-miterlimit="10" x1="811.29" y1="255.57" x2="814.74" y2="255.57"/>
</svg>
